<svg width="120" height="120" viewBox="0 0 120 120" fill="none" xmlns="http://www.w3.org/2000/svg">
<g clip-path="url(#clip0_2487_107)">
<path d="M60.002 78.8698C60.002 78.8698 68.3635 78.5284 81.2699 75.8942C93.7918 73.2601 98.8398 71.7154 103.712 69.0812C107.668 66.7642 108.719 63.3943 109.292 59.5447C109.86 56.313 110.044 51.687 109.991 49.8536C109.926 47.4919 109.603 43.7276 104.542 42.935C99.4411 42.1057 90.1224 41.8374 88.9728 41.7561C87.8233 41.6748 76.2342 41.2724 72.2702 41.1545C68.3062 41.0366 59.9979 41 59.9979 41C59.9979 41 51.7754 41.0366 47.7257 41.1545C43.7617 41.2724 32.1726 41.6748 31.0231 41.7561C29.8736 41.8374 20.5548 42.1057 15.4536 42.935C10.3974 43.7317 10.0783 47.4959 10.0087 49.8577C9.95556 51.687 10.1396 56.317 10.7083 59.5487C11.281 63.3983 12.3323 66.7682 16.2881 69.0853C21.1602 71.7154 26.2082 73.2601 38.7301 75.8983C51.6404 78.5324 59.9979 78.8739 59.9979 78.8739L60.002 78.8698Z" fill="url(#paint0_radial_2487_107)"/>
<path d="M60.0019 78.3576C60.0019 78.3576 69.0589 77.6828 80.5499 75.3901C91.64 73.008 98.1321 71.565 102.935 68.9715C106.837 66.691 108.048 63.6178 108.613 59.8252C109.173 56.6422 109.279 52.0813 109.304 50.2764C109.337 47.7236 108.919 44.2398 103.929 43.4593C98.9011 42.6382 89.7051 42.378 88.576 42.2967C87.4429 42.2154 76.0132 41.8171 72.1025 41.7032C68.1917 41.5894 59.9978 41.5488 59.9978 41.5488C59.9978 41.5488 51.8858 41.5854 47.8934 41.7032C43.9008 41.8211 32.553 42.2154 31.4198 42.2967C30.2867 42.378 21.0947 42.6423 16.0672 43.4593C11.0805 44.2358 10.6632 47.7195 10.696 50.2723C10.7205 52.0772 10.8269 56.6382 11.3873 59.8211C11.9518 63.6138 13.1668 66.6869 17.0653 68.9674C21.8679 71.5609 28.364 73.004 39.45 75.3861C50.9409 77.6788 59.9978 78.3536 59.9978 78.3536L60.0019 78.3576Z" fill="url(#paint1_linear_2487_107)"/>
<path d="M60.0019 78.0405C60.0019 78.0405 68.0607 77.5283 80.7094 75.0243C92.9817 72.5243 98.2179 70.882 102.845 68.5975C106.052 66.6828 107.651 63.1788 108.216 59.5202C108.523 56.695 108.985 50.9959 108.907 49.2601C108.829 47.5243 108.625 44.5081 103.667 43.7561C99.6006 43.3414 89.6559 42.691 88.531 42.6138C87.406 42.5365 76.1032 42.0935 72.2169 42.0691C68.3307 42.0447 60.006 42.0691 60.006 42.0691C60.006 42.0691 51.6812 42.0447 47.7951 42.0691C43.9089 42.0935 32.6061 42.5365 31.4811 42.6138C30.3562 42.691 20.4115 43.3414 16.3453 43.7561C11.3791 44.5081 11.1745 47.5243 11.0968 49.2642C11.0191 51.004 11.4813 56.6991 11.7881 59.5243C12.3527 63.1788 13.9522 66.6828 17.1593 68.6015C21.786 70.882 27.0222 72.5243 39.2945 75.0283C51.9472 77.5283 60.0019 78.0446 60.0019 78.0446V78.0405Z" fill="url(#paint2_radial_2487_107)"/>
<path d="M60.002 77.4349C60.002 77.4349 67.7295 76.943 79.9282 74.5406C91.7587 72.1381 96.639 70.6056 101.102 68.4105C104.133 66.7682 105.843 63.3658 106.387 59.8536C106.682 57.1382 107.001 52.065 106.927 50.3983C106.854 48.7317 106.845 45.2317 102.063 44.5122C98.1444 44.1138 88.5556 43.4919 87.4675 43.4146C86.3793 43.3374 75.4856 42.9146 71.7384 42.8902C67.9913 42.8658 60.0061 42.8902 60.0061 42.8902C60.0061 42.8902 52.0209 42.8658 48.2739 42.8902C44.5268 42.9146 33.6289 43.3374 32.5449 43.4146C31.4608 43.4919 21.8721 44.1138 17.949 44.5122C13.1669 45.2357 13.1587 48.7317 13.0851 50.3983C13.0114 52.065 13.3264 57.1382 13.625 59.8536C14.1691 63.3658 15.8791 66.7682 18.9103 68.4105C23.3734 70.6015 28.2496 72.1341 40.0842 74.5406C52.2827 76.943 60.0102 77.4349 60.0102 77.4349H60.002Z" fill="url(#paint3_linear_2487_107)"/>
<path d="M60.0019 76.8454C60.0019 76.8454 67.668 76.3658 79.7726 74.0365C91.5131 71.7072 96.3566 70.2194 100.783 68.0934C103.794 66.4999 105.487 63.1991 106.027 59.7926C106.322 57.1585 106.633 52.2398 106.559 50.6219C106.485 49.0041 106.477 45.6098 101.732 44.9106C97.8416 44.5244 88.3264 43.9187 87.2505 43.8496C86.1747 43.7805 75.3627 43.3659 71.6442 43.3415C67.9257 43.3171 60.0019 43.3415 60.0019 43.3415C60.0019 43.3415 52.078 43.3171 48.3597 43.3415C44.6412 43.3659 33.8293 43.7764 32.7534 43.8496C31.6775 43.9228 22.1624 44.5244 18.272 44.9106C13.5267 45.6098 13.5186 49.0041 13.4449 50.6219C13.3713 52.2398 13.6863 57.1585 13.9767 59.7926C14.5167 63.1991 16.2103 66.4999 19.2211 68.0934C23.6473 70.2194 28.4908 71.7072 40.2313 74.0365C52.3358 76.3658 60.0019 76.8454 60.0019 76.8454Z" fill="url(#paint4_linear_2487_107)"/>
<path d="M60.0019 76.5853C60.0019 76.5853 67.6312 76.1137 79.6785 73.8211C91.3618 71.5284 96.1807 70.065 100.586 67.9755C103.581 66.4064 105.217 63.1056 105.753 59.752C106.044 57.1626 106.412 52.378 106.338 50.7886C106.264 49.1992 106.256 45.8618 101.536 45.1707C97.6657 44.7886 88.1955 44.1951 87.1237 44.126C86.0519 44.0569 75.2932 43.6504 71.5911 43.626C67.8889 43.6016 60.006 43.626 60.006 43.626C60.006 43.626 52.119 43.6016 48.4211 43.626C44.723 43.6504 33.9602 44.0528 32.8884 44.126C31.8166 44.1992 22.3464 44.7927 18.4766 45.1707C13.7517 45.8618 13.7436 49.1951 13.674 50.7886C13.6045 52.3821 13.9645 57.1626 14.259 59.752C14.7949 63.1016 16.4312 66.4064 19.4256 67.9755C23.8314 70.065 28.6503 71.5284 40.3336 73.8211C52.3808 76.1137 60.0101 76.5853 60.0101 76.5853H60.0019Z" fill="url(#paint5_linear_2487_107)"/>
<path d="M59.6297 50.6178H38.8814L38.0837 53.6707H55.7312C56.4143 53.6869 56.9543 53.7276 57.2775 54.1056C57.5843 54.4634 57.5598 54.9756 57.4861 55.4268C57.2611 56.7682 55.2035 56.9512 55.1135 56.9512L43.4386 56.9308L41.0414 65.8333H56.1157C56.9011 65.8333 57.8911 65.4918 58.5416 65.004C59.2943 64.4268 59.6092 63.0568 59.7238 62.5365C59.7401 62.4715 59.7524 62.4186 59.7606 62.378C59.8588 61.9877 60.1615 60.2154 60.231 59.5203C60.2515 59.3008 60.2801 58.626 59.1756 58.4512L58.1366 58.2316L59.1674 57.8292C60.1329 57.5894 60.3251 56.6585 60.3333 56.6178C60.3415 56.5853 60.7015 54.9959 61.3192 52.5C61.4624 51.9227 61.4133 51.4756 61.1719 51.1707C60.7465 50.63 59.8138 50.6057 59.6338 50.6057V50.6178H59.6297ZM56.8602 61.1463C56.5412 62.3129 55.8457 62.8129 54.5408 62.8292H54.0376C51.9349 62.8292 45.5535 62.7682 45.488 62.7682H44.9562L45.1035 62.252L45.803 59.8333L45.8889 59.5447H46.1917L55.2117 59.4959H55.3098C55.6616 59.4959 56.3121 59.565 56.6762 60.0284C56.8357 60.2316 56.9993 60.5894 56.8643 61.1463H56.8602Z" fill="url(#paint6_linear_2487_107)"/>
<path d="M65.7659 55.3008C66.1709 53.752 67.9709 53.6748 68.0445 53.6707C68.159 53.6707 73.4811 53.6829 77.4656 53.6829C79.4209 53.6829 80.7177 53.6829 81.3354 53.6748C81.9613 51.9146 81.904 51.7805 81.6259 51.2276C81.2823 50.6545 80.4436 50.5894 80.1 50.5894C80.0182 50.5894 79.9691 50.5894 79.9609 50.5935H79.9282C79.8791 50.5935 74.827 50.5691 71.0512 50.5691C68.8381 50.5691 67.4922 50.5772 67.0464 50.5935H66.985C65.5369 50.6423 65.4141 50.6504 64.5714 51.1219C63.4792 51.8455 63.1928 53.1666 62.7551 55.1666L62.7019 55.4065C62.3747 56.8943 62.0433 57.6463 61.8306 58.0122C62.3706 58.8008 62.3788 59.6707 62.3788 59.7113V59.7561L62.3665 59.8008L61.6711 62.813C61.3111 64.3739 61.127 64.8211 60.8284 65.3252C61.1515 65.7479 61.6506 65.7967 61.8715 65.7967H61.9983C62.0515 65.7967 67.3204 65.8292 71.4194 65.8292C73.8248 65.8292 75.3588 65.817 75.9806 65.7967C77.711 65.7357 78.5742 64.13 78.6928 63.8943L80.3823 57.0325H73.9189L73.2561 59.5691H76.8233L76.6679 60.0894L76.361 61.1097C75.817 62.7967 74.2298 62.8739 74.1643 62.878C74.152 62.878 71.2149 62.8902 68.7849 62.8902C67.3736 62.8902 66.4164 62.8902 65.9459 62.878C65.365 62.8699 64.9191 62.6788 64.6287 62.3089C64.1337 61.6869 64.3014 60.8252 64.326 60.7276C64.3423 60.6707 65.4387 56.5609 65.77 55.3008H65.7659Z" fill="url(#paint7_linear_2487_107)"/>
<path d="M61.7937 52.0609C61.7978 51.9756 61.8019 51.8943 61.7978 51.817C61.7978 51.7723 61.7896 51.7276 61.7814 51.687C61.7732 51.6219 61.7651 51.5569 61.7487 51.4959C61.7405 51.4553 61.7242 51.4146 61.7119 51.378C61.6955 51.3252 61.6751 51.2723 61.6546 51.2235C61.6382 51.187 61.6178 51.1544 61.6014 51.1179C61.5769 51.0731 61.5482 51.0284 61.5196 50.9878C61.4992 50.9593 61.4746 50.9268 61.4501 50.8983C61.4173 50.8618 61.3846 50.8252 61.3478 50.7927C61.3233 50.7683 61.2946 50.7439 61.2701 50.7195C61.2333 50.687 61.1923 50.6585 61.1514 50.6301C61.1228 50.6097 61.0942 50.5894 61.0655 50.5731C61.0205 50.5447 60.9755 50.5244 60.9305 50.5C60.9019 50.4878 60.8774 50.4715 60.8487 50.4593C60.7955 50.4349 60.7424 50.4146 60.6933 50.3983C60.6728 50.3902 60.6483 50.3821 60.6278 50.374C60.5542 50.3496 60.4806 50.3292 60.4069 50.3089C60.3946 50.3089 60.3865 50.3089 60.3742 50.3008C60.3128 50.2845 60.2515 50.2723 60.1942 50.2642C60.1697 50.2601 60.1451 50.2561 60.1247 50.252C60.0837 50.2439 60.0388 50.2398 60.0019 50.2357C59.9774 50.2357 59.9528 50.2317 59.9324 50.2276C59.8997 50.2276 59.8669 50.2195 59.8342 50.2195H38.5705L37.5601 54.0772H55.7312C56.8439 54.1016 57.2611 54.2032 57.0852 55.3699C56.9093 56.5365 55.1135 56.5487 55.1135 56.5487L43.1276 56.5284L40.5136 66.2398H56.1198C56.1811 66.2398 56.2466 66.2398 56.3121 66.2316C56.3652 66.2316 56.4143 66.2316 56.4675 66.2235C56.533 66.2154 56.5943 66.2072 56.6598 66.1951C56.7129 66.1869 56.7661 66.1829 56.8193 66.1707C56.8848 66.1585 56.9502 66.1422 57.0157 66.1259C57.0688 66.1138 57.122 66.1056 57.1752 66.0894C57.2407 66.0731 57.3061 66.0487 57.3716 66.0284C57.4247 66.0121 57.4779 65.9999 57.5311 65.9796C57.5966 65.9552 57.662 65.9308 57.7275 65.9024C57.7765 65.882 57.8256 65.8658 57.8747 65.8455C57.9402 65.817 58.0015 65.7845 58.067 65.756C58.112 65.7357 58.1611 65.7154 58.2061 65.691C58.2715 65.6585 58.3329 65.6178 58.3983 65.5812C58.4393 65.5568 58.4802 65.5365 58.517 65.5162C58.6152 65.4552 58.7092 65.3902 58.7992 65.3251C59.7647 64.5853 60.0674 62.8821 60.1697 62.4756C60.2719 62.069 60.5787 60.2723 60.6524 59.5609C60.7424 58.6544 60.0306 58.3008 59.3147 58.1869C60.5583 57.878 60.7465 56.691 60.7465 56.691C60.7465 56.691 61.1064 55.1178 61.7282 52.5975C61.7651 52.4471 61.7896 52.3048 61.8019 52.1748C61.806 52.13 61.8019 52.0894 61.806 52.0487L61.7937 52.0609ZM61.3192 52.5162C60.7055 55.0122 60.3006 56.5121 60.2924 56.5406C60.2842 56.5813 60.2433 57.2195 59.1674 57.8414L58.1365 58.2439L58.787 58.3902C59.8915 58.565 60.2965 59.1178 60.2065 59.7317C60.1083 60.4227 59.7606 61.9877 59.6665 62.378C59.6583 62.4186 59.646 62.4715 59.6297 62.5365C59.511 63.0528 59.1715 64.3861 58.4188 64.9633C57.7725 65.4512 56.9011 65.8414 56.1157 65.8414H41.0413L43.4385 56.939L55.1135 56.9593C55.1994 56.9593 57.3102 56.8577 57.5352 55.3699C57.6047 54.9187 57.7316 54.4552 57.4247 54.0935C57.1016 53.7154 56.4143 53.6951 55.7312 53.6788H38.0837L38.8814 50.626H59.6297C59.8138 50.626 60.7424 50.6544 61.1678 51.191C61.4092 51.4959 61.4582 51.9431 61.3151 52.5203H61.3192V52.5162Z" fill="url(#paint8_linear_2487_107)"/>
<path d="M55.314 59.4999H55.2159L46.1959 59.5447H45.8931L45.8072 59.8373L45.1077 62.256L44.9604 62.7642H45.4922C45.5577 62.7682 51.9391 62.8333 54.0418 62.8333H54.545C55.8499 62.817 56.5454 62.317 56.8644 61.1503C56.9994 60.5934 56.8358 60.2357 56.6763 60.0325C56.3122 59.569 55.6618 59.4999 55.3099 59.4999H55.314ZM56.5085 60.8495C56.5085 60.9146 56.4922 60.9837 56.4758 61.0568C56.2467 61.8861 55.8213 62.4146 54.545 62.4308H52.0414C51.7469 62.4308 51.4442 62.4308 51.1292 62.4268H51.1128C50.7939 62.4268 50.4666 62.4227 50.1394 62.4186H50.0166C49.5626 62.4186 49.1126 62.4105 48.679 62.4064H48.2372C48.0408 62.4064 47.8526 62.4064 47.6685 62.4024H46.7358C46.5027 62.4024 46.3022 62.4024 46.1263 62.3983H45.9259C45.66 62.3983 45.5004 62.3942 45.5004 62.3942L46.2 59.9755L55.2281 59.9308H55.3795C55.404 59.9308 55.4327 59.9308 55.4654 59.9349C55.4981 59.9349 55.5349 59.9349 55.5718 59.943C55.584 59.943 55.5922 59.943 55.6045 59.9471C55.6331 59.9471 55.6577 59.9552 55.6863 59.9593C55.7027 59.9593 55.7149 59.9634 55.7313 59.9674C55.7558 59.9674 55.7845 59.9796 55.809 59.9837C55.8254 59.9837 55.8417 59.9918 55.8581 59.9959C55.8827 60.004 55.9113 60.0121 55.9358 60.0203C55.9522 60.0243 55.9686 60.0325 55.9808 60.0365C56.0095 60.0487 56.034 60.0609 56.0627 60.0731C56.0749 60.0812 56.0913 60.0853 56.1036 60.0934C56.1404 60.1138 56.1772 60.1341 56.2099 60.1585H56.2181C56.2549 60.1829 56.2876 60.2113 56.3163 60.2438C56.3245 60.252 56.3326 60.2642 56.3408 60.2764C56.3613 60.3007 56.3817 60.3251 56.3981 60.3495C56.4063 60.3617 56.4145 60.378 56.4226 60.3942C56.4349 60.4186 56.4513 60.4471 56.4595 60.4755C56.4676 60.4918 56.4717 60.5121 56.4799 60.5284C56.4881 60.5568 56.4963 60.5894 56.5004 60.6219C56.5004 60.6422 56.5085 60.6625 56.5085 60.6829V60.8617V60.8495Z" fill="url(#paint9_radial_2487_107)"/>
<path d="M66.1585 55.4024C66.494 54.126 68.0607 54.0731 68.0607 54.0731H81.6135C82.3825 51.9309 82.3335 51.752 81.9735 51.0366C81.9244 50.9512 81.863 50.874 81.8017 50.8049C81.7894 50.7886 81.773 50.7764 81.7607 50.7601C81.6953 50.6951 81.6298 50.6382 81.5562 50.5853L81.5194 50.561C81.4539 50.5162 81.3844 50.4756 81.3148 50.4431C81.2985 50.4349 81.2862 50.4268 81.2698 50.4227C81.1921 50.3862 81.1144 50.3577 81.0326 50.3293C81.0162 50.3252 80.9958 50.3171 80.9794 50.313C80.9058 50.2886 80.8321 50.2723 80.7585 50.2561C80.7503 50.2561 80.7421 50.2561 80.7381 50.252C80.6603 50.2358 80.5867 50.2236 80.5131 50.2154C80.4967 50.2154 80.4803 50.2114 80.464 50.2114C80.3944 50.2032 80.329 50.1992 80.2717 50.1951H80.2553C80.1981 50.1951 80.149 50.1951 80.104 50.191H67.0258C66.5512 50.2073 66.2076 50.2195 65.9253 50.2439C65.3076 50.2967 65.009 50.4106 64.3545 50.7805C63.07 51.6219 62.7877 53.1016 62.3009 55.3252C61.8141 57.5487 61.2823 58.0325 61.2823 58.0325C61.9246 58.7723 61.9818 59.3577 61.9573 59.5731C61.9328 59.7886 61.8591 60.1951 61.675 60.9878C61.6219 61.2276 61.5605 61.4918 61.4909 61.7845C61.4255 62.0772 61.3519 62.3902 61.2741 62.7276C61.1187 63.3983 61.0001 63.8577 60.8896 64.1951C60.8528 64.3089 60.8201 64.4065 60.7832 64.4999C60.6442 64.8617 60.4846 64.9837 60.3169 65.252C60.3619 65.3414 60.4478 65.4999 60.501 65.5731C60.5133 65.5894 60.5255 65.6056 60.5378 65.6178C60.591 65.6829 60.6482 65.7438 60.7096 65.7967C60.7178 65.8048 60.7301 65.813 60.7382 65.8211C60.7914 65.8658 60.8487 65.9064 60.906 65.943C60.9182 65.9512 60.9264 65.9593 60.9387 65.9634C61.0001 65.9999 61.0655 66.0325 61.1269 66.0569C61.1391 66.0609 61.1555 66.069 61.1678 66.0731C61.2291 66.0975 61.2905 66.1178 61.3478 66.1341H61.356C61.4173 66.1503 61.4787 66.1625 61.5319 66.1707C61.5441 66.1707 61.5564 66.1747 61.5687 66.1788C61.6219 66.1869 61.6709 66.191 61.7159 66.1951H65.3731C65.6758 66.1951 65.9949 66.1951 66.3181 66.1991H75.1705C75.2728 66.1991 75.371 66.1991 75.4609 66.1951C75.5509 66.1951 75.6287 66.1951 75.7064 66.191H75.7678C75.8414 66.191 75.9109 66.191 75.9682 66.1869C78.0995 66.1097 78.7458 64.5609 79.0526 64.0162C79.3595 63.4715 80.9344 56.5853 80.9344 56.5853L73.5792 56.6138L73.1415 58.2845L72.7038 59.9552H76.2505L76.1973 60.1382C76.1809 60.1991 76.1564 60.2804 76.1237 60.3861C76.1032 60.4593 76.0787 60.5406 76.0459 60.6382C76.0173 60.7357 75.9846 60.8495 75.9437 60.9756C75.8578 61.2439 75.7391 61.4634 75.6041 61.6422C75.4241 61.8821 75.2155 62.0528 75.011 62.1707C74.9619 62.1991 74.9087 62.2276 74.8596 62.252C74.7614 62.3008 74.6632 62.3374 74.5773 62.3658C74.5323 62.378 74.4914 62.3902 74.4505 62.4024C74.3728 62.4227 74.3033 62.4349 74.2501 62.443C74.1683 62.4552 74.1233 62.4552 74.1233 62.4552H65.9253C64.334 62.4308 64.7268 60.752 64.7268 60.752C64.7268 60.752 65.7944 56.6585 66.1299 55.3821L66.1585 55.4024ZM64.6286 62.3089C64.9231 62.6747 65.3649 62.8658 65.9458 62.878C66.4162 62.8861 67.3735 62.8902 68.7848 62.8902C71.2147 62.8902 74.1478 62.878 74.1642 62.878C74.2296 62.878 75.8168 62.7967 76.3609 61.1097L76.6677 60.0894L76.8232 59.5691H73.256L73.9187 57.0325H80.3822L78.6927 63.8943C78.574 64.1341 77.7068 65.7357 75.9805 65.7967C75.3546 65.8211 73.8206 65.8292 71.4193 65.8292C67.3203 65.8292 62.0514 65.7967 61.9982 65.7967H61.8714C61.6546 65.7967 61.1514 65.7479 60.8282 65.3251C61.3069 64.752 61.5237 63.8536 61.7159 62.817L62.3746 59.7561C62.3746 59.7561 62.4318 59.4959 62.4482 59.3048C62.4646 59.1138 62.3664 58.8008 61.8264 58.0122C62.0391 57.6463 62.3705 56.8902 62.6977 55.4065L62.7509 55.1666C63.1886 53.1666 63.4791 51.8455 64.5672 51.1219C65.4058 50.6504 65.5326 50.6463 66.9808 50.5975H67.0421C67.4839 50.5813 68.8298 50.5732 71.047 50.5732C74.8228 50.5732 79.8749 50.5975 79.924 50.5975H79.9567C79.9567 50.5975 80.014 50.5975 80.0958 50.5975C80.4394 50.5975 81.278 50.6585 81.6217 51.2358C81.8998 51.7886 81.9571 51.9187 81.3312 53.6829C80.7135 53.687 79.4167 53.691 77.4613 53.691C73.481 53.691 68.1548 53.6788 68.0403 53.6788C67.9626 53.6788 66.1667 53.7561 65.7617 55.3089C65.4304 56.5691 64.334 60.6788 64.3177 60.7357C64.2972 60.8333 64.1254 61.6951 64.6204 62.317H64.6286V62.3089Z" fill="url(#paint10_linear_2487_107)"/>
</g>
<defs>
<radialGradient id="paint0_radial_2487_107" cx="0" cy="0" r="1" gradientUnits="userSpaceOnUse" gradientTransform="translate(59.6088 46.4372) rotate(90.7145) scale(38.6097 64.8866)">
<stop stop-color="#808080"/>
<stop offset="0.53" stop-color="#404040"/>
<stop offset="0.74" stop-color="#4C4C4C"/>
<stop offset="0.98" stop-color="#575757"/>
</radialGradient>
<linearGradient id="paint1_linear_2487_107" x1="60.0019" y1="78.3576" x2="60.0019" y2="41.5488" gradientUnits="userSpaceOnUse">
<stop/>
<stop offset="0.07" stop-color="#0C0C0C"/>
<stop offset="0.19" stop-color="#1A1A1A"/>
<stop offset="0.33" stop-color="#232323"/>
<stop offset="0.55" stop-color="#262626"/>
<stop offset="0.98" stop-color="#292929"/>
</linearGradient>
<radialGradient id="paint2_radial_2487_107" cx="0" cy="0" r="1" gradientUnits="userSpaceOnUse" gradientTransform="translate(60.1398 38.7211) rotate(89.839) scale(45.8495 61.3661)">
<stop offset="0.63" stop-color="#949494"/>
<stop offset="0.65" stop-color="#9F9F9F"/>
<stop offset="0.7" stop-color="#BEBEBE"/>
<stop offset="0.76" stop-color="#F0F0F0"/>
<stop offset="0.77" stop-color="white"/>
<stop offset="0.79" stop-color="#DADADA"/>
<stop offset="0.81" stop-color="#A7A7A7"/>
<stop offset="0.83" stop-color="#888888"/>
<stop offset="0.84" stop-color="#7D7D7D"/>
<stop offset="0.92" stop-color="#919191"/>
<stop offset="1" stop-color="white"/>
</radialGradient>
<linearGradient id="paint3_linear_2487_107" x1="60.0061" y1="77.4349" x2="60.0061" y2="42.878" gradientUnits="userSpaceOnUse">
<stop offset="0.11" stop-color="#DBDBDB"/>
<stop offset="0.88" stop-color="#363636"/>
</linearGradient>
<linearGradient id="paint4_linear_2487_107" x1="59.7851" y1="81.321" x2="60.0719" y2="40.7764" gradientUnits="userSpaceOnUse">
<stop offset="0.11"/>
<stop offset="0.41" stop-color="#3C3C3C"/>
<stop offset="0.68" stop-color="#6A6A6A"/>
<stop offset="0.88" stop-color="#868686"/>
<stop offset="1" stop-color="#919191"/>
</linearGradient>
<linearGradient id="paint5_linear_2487_107" x1="60.006" y1="44.3618" x2="60.006" y2="70.7438" gradientUnits="userSpaceOnUse">
<stop offset="0.11" stop-color="#363636"/>
<stop offset="0.78"/>
</linearGradient>
<linearGradient id="paint6_linear_2487_107" x1="49.7425" y1="50.6057" x2="49.7425" y2="65.8333" gradientUnits="userSpaceOnUse">
<stop stop-color="white"/>
<stop offset="0.16" stop-color="#F3F3F3"/>
<stop offset="0.36" stop-color="#CECECE"/>
<stop offset="0.37" stop-color="#AEAEAE"/>
<stop offset="0.38" stop-color="#ABABAB"/>
<stop offset="0.48" stop-color="#979797"/>
<stop offset="0.58" stop-color="#8B8B8B"/>
<stop offset="0.68" stop-color="#878787"/>
<stop offset="1" stop-color="#303030"/>
</linearGradient>
<linearGradient id="paint7_linear_2487_107" x1="71.3294" y1="50.5691" x2="71.3294" y2="65.8292" gradientUnits="userSpaceOnUse">
<stop stop-color="white"/>
<stop offset="0.16" stop-color="#F3F3F3"/>
<stop offset="0.36" stop-color="#CECECE"/>
<stop offset="0.37" stop-color="#AEAEAE"/>
<stop offset="0.38" stop-color="#ABABAB"/>
<stop offset="0.48" stop-color="#979797"/>
<stop offset="0.58" stop-color="#8B8B8B"/>
<stop offset="0.68" stop-color="#878787"/>
<stop offset="1" stop-color="#303030"/>
</linearGradient>
<linearGradient id="paint8_linear_2487_107" x1="49.141" y1="49.7642" x2="52.014" y2="66.7945" gradientUnits="userSpaceOnUse">
<stop stop-color="#F9F9F9"/>
<stop offset="0.07" stop-color="#C9C9C9"/>
<stop offset="0.13" stop-color="#A0A0A0"/>
<stop offset="0.19" stop-color="#818181"/>
<stop offset="0.25" stop-color="#6B6B6B"/>
<stop offset="0.31" stop-color="#5D5D5D"/>
<stop offset="0.36" stop-color="#595959"/>
<stop offset="0.45" stop-color="#5A5A5A"/>
<stop offset="0.48" stop-color="#616161"/>
<stop offset="0.5" stop-color="#6D6D6D"/>
<stop offset="0.52" stop-color="#818181"/>
<stop offset="0.77" stop-color="#A8A8A8"/>
<stop offset="0.79" stop-color="#838383"/>
<stop offset="0.82" stop-color="#626262"/>
<stop offset="0.84" stop-color="#464646"/>
<stop offset="0.87" stop-color="#313131"/>
<stop offset="0.9" stop-color="#222222"/>
<stop offset="0.94" stop-color="#191919"/>
<stop offset="1" stop-color="#171717"/>
</linearGradient>
<radialGradient id="paint9_radial_2487_107" cx="0" cy="0" r="1" gradientUnits="userSpaceOnUse" gradientTransform="translate(50.9574 63.5144) rotate(-88.9836) scale(5.26829 7.21022)">
<stop offset="0.44" stop-color="white"/>
<stop offset="1" stop-color="#4D4D4D"/>
</radialGradient>
<linearGradient id="paint10_linear_2487_107" x1="69.5007" y1="48.8943" x2="72.6568" y2="66.2346" gradientUnits="userSpaceOnUse">
<stop stop-color="#F9F9F9"/>
<stop offset="0.07" stop-color="#C9C9C9"/>
<stop offset="0.13" stop-color="#A0A0A0"/>
<stop offset="0.19" stop-color="#818181"/>
<stop offset="0.25" stop-color="#6B6B6B"/>
<stop offset="0.31" stop-color="#5D5D5D"/>
<stop offset="0.36" stop-color="#595959"/>
<stop offset="0.45" stop-color="#5A5A5A"/>
<stop offset="0.48" stop-color="#616161"/>
<stop offset="0.5" stop-color="#6D6D6D"/>
<stop offset="0.52" stop-color="#818181"/>
<stop offset="0.79" stop-color="#A8A8A8"/>
<stop offset="0.81" stop-color="#828282"/>
<stop offset="0.83" stop-color="#616161"/>
<stop offset="0.85" stop-color="#464646"/>
<stop offset="0.87" stop-color="#313131"/>
<stop offset="0.9" stop-color="#222222"/>
<stop offset="0.93" stop-color="#191919"/>
<stop offset="0.98" stop-color="#171717"/>
</linearGradient>
<clipPath id="clip0_2487_107">
<rect width="100" height="38" fill="white" transform="translate(10 41)"/>
</clipPath>
</defs>
</svg>
