<svg width="120" height="120" viewBox="0 0 120 120" fill="none" xmlns="http://www.w3.org/2000/svg">
<g clip-path="url(#clip0_2487_107)">
<mask id="mask0_2487_107" style="mask-type:luminance" maskUnits="userSpaceOnUse" x="10" y="31" width="100" height="58">
<path d="M110 31H10V89H110V31Z" fill="white"/>
</mask>
<g mask="url(#mask0_2487_107)">
<path d="M10 75.2869H21.123C23.2566 75.2869 24.5891 75.7789 25.128 76.7628C25.3064 77.0922 25.3974 77.6207 25.3974 78.3511V79.4475C25.3974 80.7608 24.7821 81.6291 23.5442 82.0599C24.8185 82.4144 25.4557 83.2211 25.4557 84.4801V85.8441C25.4557 87.8883 23.9411 88.9124 20.9118 88.9124H10V75.2869ZM14.6349 78.1994V80.5835H19.7467C20.464 80.5328 20.8244 80.2943 20.8244 79.8636V78.9555C20.8244 78.706 20.6533 78.4923 20.3147 78.3114C20.0962 78.2355 19.9033 78.1994 19.7467 78.1994H14.6349ZM14.6349 83.5358V85.9601H19.7212C20.4167 85.9094 20.7662 85.6559 20.7662 85.2036V84.332C20.7662 83.8798 20.3875 83.6153 19.6302 83.5395H14.6349V83.5358Z" fill="black"/>
<path d="M28.27 86.0757V78.2392C28.27 78.0656 28.2992 77.8628 28.361 77.6312C28.7579 76.0684 30.2215 75.2869 32.7556 75.2869H42.3239V78.1994H33.9826C33.9207 78.2246 33.8224 78.2501 33.6841 78.2753C33.167 78.4018 32.9085 78.6659 32.9085 79.0715V80.5872H42.3276V83.5395H32.9085V85.052C32.9085 85.6088 33.3054 85.913 34.1028 85.9601H42.3239V88.9124H33.4146C29.9885 88.9124 28.2737 87.9678 28.2737 86.0757" fill="black"/>
<path d="M44.9236 85.5837V75.2869H49.5584V85.3557C49.5584 85.7609 49.948 85.9637 50.7235 85.9637H58.9155L58.8865 88.9161H50.3049C50.0281 88.9161 49.766 88.9051 49.5293 88.8796C47.8946 88.8037 46.7185 88.5072 46.0013 87.9897C45.284 87.4721 44.9236 86.6727 44.9236 85.5873" fill="black"/>
<path d="M60.8601 85.0556V78.659C60.8601 77.396 61.2495 76.5207 62.025 76.0287C62.8005 75.5363 64.1768 75.2905 66.1503 75.2905H74.8813V78.2068H66.3287C65.8515 78.2575 65.5711 78.4452 65.4911 78.7746V85.3992C65.6115 85.7248 65.9389 85.9167 66.4781 85.9674H70.1552C71.0507 85.9674 71.5389 85.7646 71.6226 85.3594V81.0792H76.2609V85.4316C76.2609 86.3146 76.1189 86.9331 75.8421 87.2876C75.045 88.373 73.5997 88.9157 71.5058 88.9157H66.1866C64.2715 88.9157 62.8662 88.6119 61.9703 88.0079C61.4499 87.653 61.1221 87.2515 60.9838 86.7956C60.9038 86.4955 60.8638 85.913 60.8638 85.0556" fill="black"/>
<path d="M79.0681 86.0757V78.2392C79.0681 78.0656 79.0971 77.8628 79.1555 77.6312C79.5559 76.0684 81.0195 75.2869 83.5498 75.2869H93.1183V78.1994H84.7734C84.7151 78.2246 84.6167 78.2501 84.4783 78.2753C83.9579 78.4018 83.6991 78.6659 83.6991 79.0715V80.5872H93.1183V83.5395H83.6991V85.052C83.6991 85.6088 84.0995 85.913 84.8934 85.9601H93.1183V88.9124H84.2089C80.7791 88.9124 79.0681 87.9678 79.0681 86.0757Z" fill="black"/>
<path d="M95.7217 86.0757V78.2392C95.7217 78.0656 95.7507 77.8628 95.809 77.6312C96.2094 76.0684 97.6731 75.2869 100.204 75.2869H109.772V78.1994H101.431C101.369 78.2246 101.27 78.2501 101.132 78.2753C100.611 78.4018 100.356 78.6659 100.356 79.0715V80.5872H109.776V83.5395H100.356V85.052C100.356 85.6088 100.754 85.913 101.554 85.9601H109.776V88.9124H100.866C97.4364 88.9124 95.7253 87.9678 95.7253 86.0757" fill="black"/>
<path d="M59.8902 68.7852C59.8902 68.7852 68.2331 68.4445 81.1106 65.8162C93.6045 63.188 98.6412 61.6467 103.502 59.0185C107.449 56.7066 108.498 53.3442 109.07 49.5032C109.637 46.2787 109.821 41.6631 109.768 39.8338C109.702 37.4773 109.38 33.7215 104.331 32.9306C99.2412 32.1032 89.9433 31.8355 88.7963 31.7544C87.6494 31.6733 76.0861 31.2717 72.131 31.1541C68.1759 31.0365 59.8861 31 59.8861 31C59.8861 31 51.682 31.0365 47.6414 31.1541C43.6863 31.2717 32.123 31.6733 30.9761 31.7544C29.8291 31.8355 20.5312 32.1032 15.4414 32.9306C10.3965 33.7256 10.0781 37.4814 10.0087 39.8379C9.95566 41.6631 10.1393 46.2828 10.7067 49.5073C11.2781 53.3483 12.3271 56.7106 16.274 59.0225C21.1353 61.6467 26.172 63.188 38.6659 65.8203C51.5473 68.4485 59.8861 68.7892 59.8861 68.7892L59.8902 68.7852Z" fill="url(#paint0_radial_2487_107)"/>
<path d="M59.8903 68.2741C59.8903 68.2741 68.927 67.6008 80.3923 65.3133C91.4576 62.9365 97.9352 61.4966 102.727 58.909C106.621 56.6336 107.829 53.5673 108.392 49.7831C108.951 46.6073 109.058 42.0565 109.082 40.2557C109.115 37.7085 108.698 34.2326 103.719 33.4538C98.7025 32.6345 89.527 32.375 88.4005 32.2938C87.2699 32.2127 75.8658 31.8152 71.9637 31.7017C68.0617 31.5881 59.8862 31.5475 59.8862 31.5475C59.8862 31.5475 51.7923 31.584 47.8088 31.7017C43.8251 31.8193 32.5027 32.2127 31.3721 32.2938C30.2414 32.375 21.07 32.6386 16.0537 33.4538C11.0782 34.2285 10.6618 37.7045 10.6945 40.2516C10.719 42.0524 10.8251 46.6032 11.3843 49.779C11.9476 53.5632 13.1598 56.6295 17.0496 58.9049C21.8414 61.4926 28.3231 62.9324 39.3843 65.3092C50.8494 67.5968 59.8862 68.2701 59.8862 68.2701L59.8903 68.2741Z" fill="url(#paint1_linear_2487_107)"/>
<path d="M59.8901 67.9578C59.8901 67.9578 67.9309 67.4467 80.5513 64.9483C92.7962 62.4539 98.0207 60.8153 102.637 58.5358C105.837 56.6255 107.433 53.1292 107.996 49.4789C108.302 46.66 108.764 40.9736 108.686 39.2417C108.608 37.5098 108.404 34.5003 103.457 33.7499C99.4003 33.3362 89.4779 32.6873 88.3554 32.6102C87.233 32.5332 75.9554 32.0911 72.0779 32.0667C68.2003 32.0424 59.8942 32.0667 59.8942 32.0667C59.8942 32.0667 51.5881 32.0424 47.7106 32.0667C43.8331 32.0911 32.5555 32.5332 31.4331 32.6102C30.3107 32.6873 20.3882 33.3362 16.3311 33.7499C11.376 34.5003 11.1719 37.5098 11.0943 39.2457C11.0168 40.9817 11.478 46.6641 11.7841 49.4829C12.3474 53.1292 13.9433 56.6255 17.1433 58.5399C21.7596 60.8153 26.9842 62.4539 39.2291 64.9523C51.8534 67.4467 59.8901 67.9618 59.8901 67.9618V67.9578Z" fill="url(#paint2_radial_2487_107)"/>
<path d="M59.8903 67.3534C59.8903 67.3534 67.6005 66.8626 79.7719 64.4656C91.576 62.0685 96.4454 60.5394 100.898 58.3492C103.923 56.7106 105.629 53.3158 106.172 49.8114C106.466 47.1021 106.784 42.0403 106.711 40.3773C106.637 38.7144 106.629 35.2222 101.858 34.5043C97.9474 34.1068 88.3801 33.4863 87.2944 33.4092C86.2087 33.3322 75.3393 32.9103 71.6005 32.886C67.8617 32.8617 59.8944 32.886 59.8944 32.886C59.8944 32.886 51.927 32.8617 48.1884 32.886C44.4496 32.9103 33.5762 33.3322 32.4945 33.4092C31.4129 33.4863 21.8456 34.1068 17.9313 34.5043C13.1598 35.2263 13.1517 38.7144 13.0782 40.3773C13.0047 42.0403 13.319 47.1021 13.617 49.8114C14.1598 53.3158 15.866 56.7106 18.8904 58.3492C23.3435 60.5354 28.2088 62.0645 40.017 64.4656C52.1882 66.8626 59.8984 67.3534 59.8984 67.3534H59.8903Z" fill="url(#paint3_linear_2487_107)"/>
<path d="M59.8902 66.7653C59.8902 66.7653 67.5392 66.2867 79.6168 63.9626C91.331 61.6386 96.1637 60.1541 100.58 58.0328C103.584 56.4429 105.274 53.1495 105.813 49.7506C106.107 47.1223 106.417 42.2147 106.343 40.6004C106.27 38.9861 106.262 35.5994 101.527 34.9018C97.6453 34.5165 88.1515 33.9121 87.078 33.8432C86.0045 33.7742 75.2168 33.3605 71.5066 33.3362C67.7963 33.3119 59.8902 33.3362 59.8902 33.3362C59.8902 33.3362 51.9841 33.3119 48.2741 33.3362C44.5639 33.3605 33.7761 33.7702 32.7026 33.8432C31.6292 33.9162 22.1353 34.5165 18.2537 34.9018C13.519 35.5994 13.5108 38.9861 13.4373 40.6004C13.3639 42.2147 13.6782 47.1223 13.9679 49.7506C14.5067 53.1495 16.1965 56.4429 19.2006 58.0328C23.6169 60.1541 28.4496 61.6386 40.1639 63.9626C52.2412 66.2867 59.8902 66.7653 59.8902 66.7653Z" fill="url(#paint4_linear_2487_107)"/>
<path d="M59.8903 66.5057C59.8903 66.5057 67.5025 66.0352 79.5229 63.7477C91.18 61.4601 95.9882 60 100.384 57.9152C103.372 56.3496 105.005 53.0562 105.539 49.7101C105.829 47.1264 106.196 42.3526 106.123 40.7667C106.049 39.1808 106.041 35.8509 101.331 35.1614C97.4698 34.7801 88.0209 34.188 86.9515 34.119C85.8821 34.0501 75.1474 33.6445 71.4535 33.6201C67.7596 33.5958 59.8943 33.6201 59.8943 33.6201C59.8943 33.6201 52.025 33.5958 48.3353 33.6201C44.6455 33.6445 33.9067 34.046 32.8374 34.119C31.768 34.192 22.319 34.7842 18.4578 35.1614C13.7435 35.8509 13.7353 39.1768 13.6659 40.7667C13.5965 42.3566 13.9557 47.1264 14.2496 49.7101C14.7843 53.0522 16.4169 56.3496 19.4047 57.9152C23.8006 60 28.6088 61.4601 40.2659 63.7477C52.2862 66.0352 59.8984 66.5057 59.8984 66.5057H59.8903Z" fill="url(#paint5_linear_2487_107)"/>
<path d="M59.5188 40.5963H38.8169L38.021 43.6423H55.629C56.3106 43.6586 56.8494 43.6991 57.1719 44.0763C57.478 44.4333 57.4535 44.9443 57.38 45.3945C57.1555 46.733 55.1025 46.9155 55.0127 46.9155L43.3639 46.8952L40.972 55.7777H56.0127C56.7963 55.7777 57.7841 55.437 58.4331 54.9503C59.1841 54.3744 59.4984 53.0075 59.6127 52.4884C59.629 52.4235 59.6412 52.3707 59.6494 52.3302C59.7474 51.9408 60.0494 50.1724 60.1188 49.4789C60.1392 49.2598 60.1678 48.5865 59.0657 48.4121L58.029 48.1931L59.0576 47.7916C60.0208 47.5523 60.2127 46.6235 60.2208 46.5829C60.229 46.5505 60.5882 44.9646 61.2045 42.4742C61.3474 41.8983 61.2984 41.4521 61.0576 41.1479C60.6331 40.6085 59.7025 40.5842 59.5229 40.5842V40.5963H59.5188ZM56.7555 51.1012C56.4372 52.2653 55.7433 52.7642 54.4412 52.7804H53.9392C51.8412 52.7804 45.4741 52.7196 45.4088 52.7196H44.8781L45.0251 52.2044L45.723 49.7912L45.8088 49.5032H46.1108L55.1106 49.4545H55.2086C55.5596 49.4545 56.2086 49.5235 56.5719 49.9858C56.731 50.1886 56.8943 50.5456 56.7596 51.1012H56.7555Z" fill="url(#paint6_linear_2487_107)"/>
<path d="M65.6411 45.2688C66.0452 43.7235 67.8411 43.6464 67.9146 43.6424C68.0289 43.6424 73.3391 43.6545 77.3146 43.6545C79.2656 43.6545 80.5595 43.6545 81.1758 43.6464C81.8003 41.8902 81.7432 41.7563 81.4656 41.2047C81.1228 40.6328 80.286 40.5679 79.9432 40.5679C79.8615 40.5679 79.8126 40.5679 79.8044 40.572H79.7717C79.7228 40.572 74.6819 40.5477 70.9146 40.5477C68.7064 40.5477 67.3636 40.5558 66.9187 40.572H66.8575C65.4126 40.6207 65.2901 40.6288 64.4493 41.0993C63.3595 41.8212 63.0738 43.1394 62.637 45.1349L62.584 45.3742C62.2575 46.8587 61.9268 47.6091 61.7146 47.9741C62.2534 48.761 62.2615 49.6289 62.2615 49.6695V49.7141L62.2493 49.7587L61.5554 52.7642C61.1962 54.3217 61.0126 54.7678 60.7146 55.2707C61.037 55.6926 61.535 55.7412 61.7554 55.7412H61.8819C61.935 55.7412 67.1922 55.7737 71.2819 55.7737C73.6819 55.7737 75.2126 55.7615 75.833 55.7412C77.5595 55.6804 78.4207 54.0783 78.5391 53.8431L80.2248 46.9966H73.7758L73.1146 49.5275H76.6738L76.5187 50.0467L76.2126 51.0647C75.6697 52.7479 74.086 52.825 74.0207 52.8291C74.0085 52.8291 71.0779 52.8412 68.6534 52.8412C67.2452 52.8412 66.2901 52.8412 65.8207 52.8291C65.2411 52.821 64.7962 52.6303 64.5064 52.2612C64.0126 51.6407 64.1799 50.7808 64.2044 50.6835C64.2207 50.6267 65.3146 46.5261 65.6452 45.2688H65.6411Z" fill="url(#paint7_linear_2487_107)"/>
<path d="M61.678 42.0362C61.6821 41.951 61.6862 41.8699 61.6821 41.7928C61.6821 41.7482 61.6739 41.7036 61.6658 41.663C61.6576 41.5982 61.6494 41.5333 61.6331 41.4724C61.6249 41.4319 61.6086 41.3913 61.5964 41.3548C61.58 41.3021 61.5596 41.2493 61.5392 41.2007C61.5229 41.1642 61.5025 41.1317 61.4862 41.0952C61.4617 41.0506 61.4331 41.006 61.4045 40.9654C61.3841 40.937 61.3596 40.9046 61.3351 40.8762C61.3025 40.8397 61.2698 40.8032 61.2331 40.7707C61.2086 40.7464 61.18 40.7221 61.1556 40.6977C61.1188 40.6653 61.078 40.6369 61.0372 40.6085C61.0086 40.5882 60.98 40.5679 60.9515 40.5517C60.9066 40.5233 60.8617 40.503 60.8168 40.4787C60.7882 40.4665 60.7637 40.4503 60.7351 40.4382C60.6821 40.4138 60.629 40.3935 60.58 40.3773C60.5596 40.3692 60.5351 40.3611 60.5147 40.353C60.4413 40.3286 60.3678 40.3084 60.2943 40.2881C60.2821 40.2881 60.2739 40.2881 60.2617 40.28C60.2005 40.2637 60.1392 40.2516 60.0821 40.2435C60.0576 40.2394 60.0331 40.2354 60.0127 40.2313C59.9719 40.2232 59.927 40.2191 59.8902 40.2151C59.8658 40.2151 59.8413 40.211 59.8209 40.207C59.7882 40.207 59.7556 40.1989 59.7229 40.1989H38.5067L37.4985 44.0479H55.629C56.7392 44.0723 57.1556 44.1737 56.98 45.3377C56.8045 46.5018 55.0127 46.514 55.0127 46.514L43.0536 46.4937L40.4455 56.1833H56.0168C56.078 56.1833 56.1433 56.1833 56.2086 56.1752C56.2617 56.1752 56.3107 56.1752 56.3637 56.1671C56.429 56.159 56.4902 56.1509 56.5556 56.1387C56.6086 56.1306 56.6617 56.1265 56.7147 56.1144C56.78 56.1022 56.8454 56.086 56.9107 56.0698C56.9637 56.0576 57.0168 56.0495 57.0698 56.0333C57.1351 56.017 57.2005 55.9927 57.2658 55.9724C57.3188 55.9562 57.3719 55.944 57.4249 55.9237C57.4902 55.8994 57.5556 55.8751 57.6209 55.8467C57.6698 55.8264 57.7188 55.8102 57.7678 55.7899C57.8331 55.7615 57.8943 55.7291 57.9596 55.7007C58.0045 55.6804 58.0535 55.6601 58.0984 55.6358C58.1637 55.6033 58.2249 55.5628 58.2902 55.5263C58.3311 55.5019 58.3719 55.4817 58.4086 55.4614C58.5066 55.4005 58.6005 55.3356 58.6902 55.2707C59.6535 54.5326 59.9556 52.8331 60.0576 52.4275C60.1596 52.0219 60.4658 50.2292 60.5392 49.5194C60.629 48.6149 59.9188 48.2621 59.2045 48.1485C60.4454 47.8403 60.6331 46.6559 60.6331 46.6559C60.6331 46.6559 60.9923 45.0863 61.6127 42.5716C61.6494 42.4215 61.6739 42.2796 61.6862 42.1498C61.6902 42.1051 61.6862 42.0646 61.6902 42.024L61.678 42.0362ZM61.2045 42.4905C60.5923 44.9808 60.1882 46.4775 60.18 46.5058C60.1719 46.5464 60.1311 47.1832 59.0576 47.8037L58.029 48.2053L58.678 48.3513C59.78 48.5257 60.1841 49.0773 60.0943 49.6898C59.9964 50.3793 59.6494 51.9408 59.5556 52.3302C59.5474 52.3707 59.5351 52.4235 59.5188 52.4884C59.4005 53.0035 59.0617 54.3338 58.3107 54.9098C57.6658 55.3965 56.7964 55.7858 56.0127 55.7858H40.972L43.3638 46.9033L55.0127 46.9236C55.0984 46.9236 57.2045 46.8222 57.429 45.3377C57.4984 44.8875 57.6249 44.4251 57.3188 44.0642C56.9964 43.687 56.3107 43.6667 55.629 43.6505H38.021L38.8169 40.6044H59.5188C59.7025 40.6044 60.629 40.6328 61.0535 41.1682C61.2943 41.4724 61.3433 41.9186 61.2005 42.4945H61.2045V42.4905Z" fill="url(#paint8_linear_2487_107)"/>
<path d="M55.2128 49.4586H55.1148L46.115 49.5032H45.8129L45.7272 49.7953L45.0293 52.2085L44.8823 52.7155H45.4129C45.4782 52.7196 51.8454 52.7845 53.9434 52.7845H54.4454C55.7475 52.7683 56.4413 52.2694 56.7597 51.1053C56.8944 50.5497 56.7311 50.1927 56.572 49.9899C56.2087 49.5276 55.5597 49.4586 55.2087 49.4586H55.2128ZM56.4046 50.8052C56.4046 50.8701 56.3883 50.939 56.372 51.012C56.1434 51.8395 55.7189 52.3667 54.4454 52.383H51.9475C51.6536 52.383 51.3515 52.383 51.0373 52.3789H51.0209C50.7027 52.3789 50.3762 52.3748 50.0497 52.3708H49.9272C49.4742 52.3708 49.0252 52.3627 48.5925 52.3586H48.1517C47.9558 52.3586 47.768 52.3586 47.5844 52.3546H46.6538C46.4211 52.3546 46.2211 52.3546 46.0456 52.3505H45.8456C45.5803 52.3505 45.4211 52.3465 45.4211 52.3465L46.1191 49.9332L55.1271 49.8885H55.2781C55.3026 49.8885 55.3311 49.8885 55.3638 49.8926C55.3964 49.8926 55.4332 49.8926 55.4699 49.9007C55.4822 49.9007 55.4903 49.9007 55.5026 49.9048C55.5311 49.9048 55.5556 49.9129 55.5842 49.9169C55.6005 49.9169 55.6128 49.921 55.6291 49.9251C55.6536 49.9251 55.6822 49.9372 55.7067 49.9413C55.723 49.9413 55.7393 49.9494 55.7556 49.9534C55.7801 49.9616 55.8087 49.9697 55.8332 49.9778C55.8495 49.9818 55.8658 49.9899 55.8781 49.994C55.9067 50.0062 55.9311 50.0183 55.9597 50.0305C55.972 50.0386 55.9883 50.0427 56.0005 50.0508C56.0373 50.0711 56.074 50.0913 56.1066 50.1157H56.1148C56.1515 50.14 56.1842 50.1684 56.2128 50.2009C56.2209 50.209 56.2291 50.2211 56.2373 50.2333C56.2577 50.2576 56.2781 50.282 56.2944 50.3063C56.3026 50.3185 56.3107 50.3347 56.3189 50.3509C56.3311 50.3753 56.3475 50.4037 56.3556 50.432C56.3638 50.4483 56.3679 50.4685 56.376 50.4848C56.3842 50.5132 56.3924 50.5456 56.3964 50.5781C56.3964 50.5983 56.4046 50.6186 56.4046 50.6389V50.8174V50.8052Z" fill="url(#paint9_radial_2487_107)"/>
<path d="M66.0332 45.3702C66.3679 44.0966 67.9311 44.0439 67.9311 44.0439H81.4536C82.2209 41.9064 82.1719 41.728 81.8128 41.0141C81.7638 40.9289 81.7025 40.8519 81.6413 40.7829C81.6291 40.7667 81.6128 40.7545 81.6005 40.7383C81.5352 40.6734 81.4699 40.6166 81.3964 40.5639L81.3597 40.5396C81.2944 40.4949 81.225 40.4544 81.1556 40.4219C81.1393 40.4138 81.127 40.4057 81.1107 40.4017C81.0332 40.3652 80.9556 40.3368 80.874 40.3084C80.8577 40.3043 80.8372 40.2962 80.8209 40.2921C80.7474 40.2678 80.674 40.2516 80.6005 40.2354C80.5923 40.2354 80.5842 40.2354 80.5801 40.2313C80.5026 40.2151 80.4291 40.2029 80.3556 40.1948C80.3393 40.1948 80.323 40.1908 80.3066 40.1908C80.2372 40.1826 80.1719 40.1786 80.1148 40.1745H80.0985C80.0413 40.1745 79.9923 40.1745 79.9474 40.1705H66.8985C66.425 40.1867 66.0821 40.1989 65.8005 40.2232C65.1842 40.2759 64.8862 40.3895 64.2332 40.7586C62.9515 41.5982 62.6699 43.0745 62.1842 45.2931C61.6985 47.5117 61.1679 47.9944 61.1679 47.9944C61.8087 48.7326 61.8658 49.3166 61.8413 49.5316C61.8168 49.7466 61.7434 50.1521 61.5597 50.9431C61.5066 51.1824 61.4454 51.446 61.376 51.738C61.3107 52.0301 61.2372 52.3424 61.1597 52.679C61.0046 53.3482 60.8862 53.8066 60.776 54.1432C60.7393 54.2568 60.7066 54.3541 60.6699 54.4474C60.5311 54.8084 60.3719 54.9301 60.2046 55.1977C60.2495 55.287 60.3352 55.4452 60.3883 55.5182C60.4005 55.5344 60.4128 55.5506 60.425 55.5628C60.4781 55.6277 60.5352 55.6885 60.5964 55.7412C60.6046 55.7494 60.6168 55.7575 60.625 55.7656C60.6781 55.8102 60.7352 55.8508 60.7923 55.8873C60.8046 55.8954 60.8128 55.9035 60.825 55.9075C60.8862 55.944 60.9515 55.9765 61.0128 56.0008C61.025 56.0049 61.0413 56.013 61.0536 56.017C61.1148 56.0414 61.176 56.0617 61.2332 56.0779H61.2413C61.3025 56.0941 61.3638 56.1063 61.4168 56.1144C61.4291 56.1144 61.4413 56.1184 61.4536 56.1225C61.5066 56.1306 61.5556 56.1347 61.6005 56.1387H65.2495C65.5515 56.1387 65.8699 56.1387 66.1923 56.1428H75.025C75.127 56.1428 75.225 56.1428 75.3148 56.1387C75.4046 56.1387 75.4821 56.1387 75.5597 56.1347H75.6209C75.6944 56.1347 75.7638 56.1347 75.8209 56.1306C77.9474 56.0535 78.5923 54.5082 78.8985 53.9647C79.2046 53.4212 80.776 46.5505 80.776 46.5505L73.4372 46.5789L73.0005 48.2459L72.5638 49.9128H76.1026L76.0495 50.0954C76.0332 50.1562 76.0087 50.2373 75.976 50.3428C75.9556 50.4158 75.9311 50.4969 75.8985 50.5942C75.8699 50.6916 75.8372 50.8052 75.7964 50.9309C75.7107 51.1986 75.5923 51.4176 75.4577 51.5961C75.2781 51.8354 75.0699 52.0057 74.8658 52.1233C74.8168 52.1517 74.7638 52.1801 74.7148 52.2045C74.6168 52.2531 74.5189 52.2896 74.4332 52.318C74.3883 52.3302 74.3474 52.3424 74.3066 52.3545C74.2291 52.3748 74.1597 52.387 74.1066 52.3951C74.025 52.4073 73.9801 52.4073 73.9801 52.4073H65.8005C64.2128 52.3829 64.6046 50.7078 64.6046 50.7078C64.6046 50.7078 65.6699 46.6235 66.0046 45.3499L66.0332 45.3702ZM64.5066 52.2612C64.8005 52.6263 65.2413 52.8169 65.8209 52.8291C66.2903 52.8372 67.2454 52.8412 68.6536 52.8412C71.0781 52.8412 74.0046 52.8291 74.0209 52.8291C74.0862 52.8291 75.6699 52.748 76.2128 51.0647L76.5189 50.0467L76.674 49.5275H73.1148L73.776 46.9966H80.225L78.5393 53.8431C78.4209 54.0824 77.5556 55.6804 75.8332 55.7412C75.2087 55.7656 73.6781 55.7737 71.2821 55.7737C67.1923 55.7737 61.9352 55.7412 61.8821 55.7412H61.7556C61.5393 55.7412 61.0372 55.6926 60.7148 55.2708C61.1923 54.6989 61.4087 53.8025 61.6005 52.7682L62.2577 49.7141C62.2577 49.7141 62.3148 49.4545 62.3311 49.2639C62.3474 49.0733 62.2495 48.761 61.7107 47.9741C61.923 47.6091 62.2536 46.8547 62.5801 45.3742L62.6332 45.1349C63.0699 43.1394 63.3597 41.8212 64.4454 41.0993C65.2821 40.6288 65.4087 40.6247 66.8536 40.5761H66.9148C67.3556 40.5598 68.6985 40.5517 70.9107 40.5517C74.6781 40.5517 79.7189 40.5761 79.7679 40.5761H79.8005C79.8005 40.5761 79.8577 40.5761 79.9393 40.5761C80.2821 40.5761 81.1189 40.6369 81.4617 41.2128C81.7393 41.7645 81.7964 41.8942 81.1719 43.6545C80.5556 43.6586 79.2617 43.6626 77.3107 43.6626C73.3393 43.6626 68.025 43.6505 67.9107 43.6505C67.8332 43.6505 66.0413 43.7275 65.6372 45.2769C65.3066 46.5342 64.2128 50.6348 64.1964 50.6916C64.176 50.7889 64.0046 51.6488 64.4985 52.2694H64.5066V52.2612Z" fill="url(#paint10_linear_2487_107)"/>
</g>
</g>
<defs>
<radialGradient id="paint0_radial_2487_107" cx="0" cy="0" r="1" gradientUnits="userSpaceOnUse" gradientTransform="translate(59.498 36.4251) rotate(90.7145) scale(38.5234 64.7416)">
<stop stop-color="#808080"/>
<stop offset="0.53" stop-color="#404040"/>
<stop offset="0.74" stop-color="#4C4C4C"/>
<stop offset="0.98" stop-color="#575757"/>
</radialGradient>
<linearGradient id="paint1_linear_2487_107" x1="59.8903" y1="68.2741" x2="59.8903" y2="31.5475" gradientUnits="userSpaceOnUse">
<stop/>
<stop offset="0.07" stop-color="#0C0C0C"/>
<stop offset="0.19" stop-color="#1A1A1A"/>
<stop offset="0.33" stop-color="#232323"/>
<stop offset="0.55" stop-color="#262626"/>
<stop offset="0.98" stop-color="#292929"/>
</linearGradient>
<radialGradient id="paint2_radial_2487_107" cx="0" cy="0" r="1" gradientUnits="userSpaceOnUse" gradientTransform="translate(60.0277 28.7263) rotate(89.839) scale(45.747 61.229)">
<stop offset="0.63" stop-color="#949494"/>
<stop offset="0.65" stop-color="#9F9F9F"/>
<stop offset="0.7" stop-color="#BEBEBE"/>
<stop offset="0.76" stop-color="#F0F0F0"/>
<stop offset="0.77" stop-color="white"/>
<stop offset="0.79" stop-color="#DADADA"/>
<stop offset="0.81" stop-color="#A7A7A7"/>
<stop offset="0.83" stop-color="#888888"/>
<stop offset="0.84" stop-color="#7D7D7D"/>
<stop offset="0.92" stop-color="#919191"/>
<stop offset="1" stop-color="white"/>
</radialGradient>
<linearGradient id="paint3_linear_2487_107" x1="59.8944" y1="67.3534" x2="59.8944" y2="32.8738" gradientUnits="userSpaceOnUse">
<stop offset="0.11" stop-color="#DBDBDB"/>
<stop offset="0.88" stop-color="#363636"/>
</linearGradient>
<linearGradient id="paint4_linear_2487_107" x1="59.6739" y1="71.2309" x2="59.9601" y2="30.7769" gradientUnits="userSpaceOnUse">
<stop offset="0.11"/>
<stop offset="0.41" stop-color="#3C3C3C"/>
<stop offset="0.68" stop-color="#6A6A6A"/>
<stop offset="0.88" stop-color="#868686"/>
<stop offset="1" stop-color="#919191"/>
</linearGradient>
<linearGradient id="paint5_linear_2487_107" x1="59.8943" y1="34.3543" x2="59.8943" y2="60.6773" gradientUnits="userSpaceOnUse">
<stop offset="0.11" stop-color="#363636"/>
<stop offset="0.78"/>
</linearGradient>
<linearGradient id="paint6_linear_2487_107" x1="49.6537" y1="40.5842" x2="49.6537" y2="55.7777" gradientUnits="userSpaceOnUse">
<stop stop-color="white"/>
<stop offset="0.16" stop-color="#F3F3F3"/>
<stop offset="0.36" stop-color="#CECECE"/>
<stop offset="0.37" stop-color="#AEAEAE"/>
<stop offset="0.38" stop-color="#ABABAB"/>
<stop offset="0.48" stop-color="#979797"/>
<stop offset="0.58" stop-color="#8B8B8B"/>
<stop offset="0.68" stop-color="#878787"/>
<stop offset="1" stop-color="#303030"/>
</linearGradient>
<linearGradient id="paint7_linear_2487_107" x1="71.1922" y1="40.5477" x2="71.1922" y2="55.7737" gradientUnits="userSpaceOnUse">
<stop stop-color="white"/>
<stop offset="0.16" stop-color="#F3F3F3"/>
<stop offset="0.36" stop-color="#CECECE"/>
<stop offset="0.37" stop-color="#AEAEAE"/>
<stop offset="0.38" stop-color="#ABABAB"/>
<stop offset="0.48" stop-color="#979797"/>
<stop offset="0.58" stop-color="#8B8B8B"/>
<stop offset="0.68" stop-color="#878787"/>
<stop offset="1" stop-color="#303030"/>
</linearGradient>
<linearGradient id="paint8_linear_2487_107" x1="49.0536" y1="39.7446" x2="51.9201" y2="56.7369" gradientUnits="userSpaceOnUse">
<stop stop-color="#F9F9F9"/>
<stop offset="0.07" stop-color="#C9C9C9"/>
<stop offset="0.13" stop-color="#A0A0A0"/>
<stop offset="0.19" stop-color="#818181"/>
<stop offset="0.25" stop-color="#6B6B6B"/>
<stop offset="0.31" stop-color="#5D5D5D"/>
<stop offset="0.36" stop-color="#595959"/>
<stop offset="0.45" stop-color="#5A5A5A"/>
<stop offset="0.48" stop-color="#616161"/>
<stop offset="0.5" stop-color="#6D6D6D"/>
<stop offset="0.52" stop-color="#818181"/>
<stop offset="0.77" stop-color="#A8A8A8"/>
<stop offset="0.79" stop-color="#838383"/>
<stop offset="0.82" stop-color="#626262"/>
<stop offset="0.84" stop-color="#464646"/>
<stop offset="0.87" stop-color="#313131"/>
<stop offset="0.9" stop-color="#222222"/>
<stop offset="0.94" stop-color="#191919"/>
<stop offset="1" stop-color="#171717"/>
</linearGradient>
<radialGradient id="paint9_radial_2487_107" cx="0" cy="0" r="1" gradientUnits="userSpaceOnUse" gradientTransform="translate(50.8658 53.4641) rotate(-88.9836) scale(5.25651 7.19411)">
<stop offset="0.44" stop-color="white"/>
<stop offset="1" stop-color="#4D4D4D"/>
</radialGradient>
<linearGradient id="paint10_linear_2487_107" x1="69.3679" y1="38.8766" x2="72.5169" y2="56.1782" gradientUnits="userSpaceOnUse">
<stop stop-color="#F9F9F9"/>
<stop offset="0.07" stop-color="#C9C9C9"/>
<stop offset="0.13" stop-color="#A0A0A0"/>
<stop offset="0.19" stop-color="#818181"/>
<stop offset="0.25" stop-color="#6B6B6B"/>
<stop offset="0.31" stop-color="#5D5D5D"/>
<stop offset="0.36" stop-color="#595959"/>
<stop offset="0.45" stop-color="#5A5A5A"/>
<stop offset="0.48" stop-color="#616161"/>
<stop offset="0.5" stop-color="#6D6D6D"/>
<stop offset="0.52" stop-color="#818181"/>
<stop offset="0.79" stop-color="#A8A8A8"/>
<stop offset="0.81" stop-color="#828282"/>
<stop offset="0.83" stop-color="#616161"/>
<stop offset="0.85" stop-color="#464646"/>
<stop offset="0.87" stop-color="#313131"/>
<stop offset="0.9" stop-color="#222222"/>
<stop offset="0.93" stop-color="#191919"/>
<stop offset="0.98" stop-color="#171717"/>
</linearGradient>
<clipPath id="clip0_2487_107">
<rect width="100" height="58" fill="white" transform="translate(10 31)"/>
</clipPath>
</defs>
</svg>
