<svg width="43" height="62" viewBox="0 0 43 62" fill="none" xmlns="http://www.w3.org/2000/svg">
<g clip-path="url(#clip0_2487_175)">
<path opacity="0.2" d="M35 58.4C35 60.4 28.8 62 21.2 62C13.6 62 7.40002 60.4 7.40002 58.4C7.40002 56.4 13.6 54.8 21.2 54.8C28.8 54.7 35 56.4 35 58.4Z" fill="#05141F"/>
<path d="M21.4 0C9.6 0 0 9.6 0 21.4C0 34 21.4 58.5 21.4 58.5C21.4 58.5 42.8 35 42.8 21.4C42.8 9.6 33.2 0 21.4 0ZM21.4 33.7C14.1 33.7 8.2 27.8 8.2 20.5C8.2 13.2 14.1 7.3 21.4 7.3C28.7 7.3 34.6 13.2 34.6 20.5C34.6 27.8 28.7 33.7 21.4 33.7Z" fill="#010101"/>
<path d="M21.7 38.4C30.9232 38.4 38.4 30.9232 38.4 21.7C38.4 12.4768 30.9232 5 21.7 5C12.4768 5 5 12.4768 5 21.7C5 30.9232 12.4768 38.4 21.7 38.4Z" fill="white"/>
<mask id="mask0_2487_175" style="mask-type:luminance" maskUnits="userSpaceOnUse" x="9" y="14" width="25" height="15">
<path d="M34 14H9V28.5918H34V14Z" fill="white"/>
</mask>
<g mask="url(#mask0_2487_175)">
<path d="M9 25.1418H11.7807C12.3141 25.1418 12.6473 25.2656 12.782 25.5132C12.8266 25.596 12.8494 25.729 12.8494 25.9127V26.1886C12.8494 26.519 12.6955 26.7374 12.3861 26.8458C12.7046 26.935 12.8639 27.138 12.8639 27.4547V27.7978C12.8639 28.3121 12.4853 28.5698 11.7279 28.5698H9V25.1418ZM10.1587 25.8746V26.4744H11.4367C11.616 26.4616 11.7061 26.4016 11.7061 26.2933V26.0648C11.7061 26.002 11.6633 25.9483 11.5787 25.9027C11.5241 25.8837 11.4758 25.8746 11.4367 25.8746H10.1587ZM10.1587 27.2171V27.827H11.4303C11.6042 27.8143 11.6915 27.7505 11.6915 27.6367V27.4174C11.6915 27.3037 11.5969 27.2371 11.4076 27.2181H10.1587V27.2171Z" fill="black"/>
<path d="M13.5676 27.8561V25.8846C13.5676 25.8409 13.5749 25.7899 13.5904 25.7316C13.6896 25.3385 14.0555 25.1418 14.689 25.1418H17.0811V25.8746H14.9958C14.9803 25.8809 14.9557 25.8873 14.9211 25.8937C14.7919 25.9255 14.7273 25.9919 14.7273 26.094V26.4753H17.082V27.2181H14.7273V27.5986C14.7273 27.7387 14.8265 27.8152 15.0258 27.827H17.0811V28.5698H14.8538C13.9972 28.5698 13.5685 28.3321 13.5685 27.8561" fill="black"/>
<path d="M17.7308 27.7323V25.1418H18.8895V27.675C18.8895 27.7769 18.9869 27.828 19.1808 27.828H21.2288L21.2216 28.5707H19.0762C19.007 28.5707 18.9414 28.568 18.8823 28.5615C18.4736 28.5424 18.1796 28.4679 18.0003 28.3376C17.8209 28.2074 17.7308 28.0063 17.7308 27.7333" fill="black"/>
<path d="M21.7151 27.5995V25.9902C21.7151 25.6724 21.8124 25.4522 22.0063 25.3285C22.2002 25.2046 22.5443 25.1428 23.0376 25.1428H25.2204V25.8764H23.0822C22.9629 25.8892 22.8928 25.9364 22.8728 26.0193V27.6859C22.9029 27.7679 22.9848 27.8161 23.1196 27.8289H24.0389C24.2627 27.8289 24.3848 27.7779 24.4057 27.6759V26.5991H25.5653V27.6941C25.5653 27.9162 25.5298 28.0718 25.4606 28.161C25.2613 28.4341 24.9 28.5706 24.3765 28.5706H23.0467C22.5679 28.5706 22.2166 28.4942 21.9926 28.3422C21.8625 28.253 21.7806 28.1519 21.746 28.0372C21.726 27.9617 21.716 27.8152 21.716 27.5995" fill="black"/>
<path d="M26.2671 27.8561V25.8846C26.2671 25.8409 26.2743 25.7899 26.2889 25.7316C26.389 25.3385 26.7549 25.1418 27.3875 25.1418H29.7796V25.8746H27.6934C27.6788 25.8809 27.6542 25.8873 27.6196 25.8937C27.4895 25.9255 27.4248 25.9919 27.4248 26.094V26.4753H29.7796V27.2181H27.4248V27.5986C27.4248 27.7387 27.5249 27.8152 27.7234 27.827H29.7796V28.5698H27.5523C26.6948 28.5698 26.2671 28.3321 26.2671 27.8561Z" fill="black"/>
<path d="M30.4304 27.8561V25.8846C30.4304 25.8409 30.4377 25.7899 30.4523 25.7316C30.5524 25.3385 30.9183 25.1418 31.5509 25.1418H33.943V25.8746H31.8577C31.8422 25.8809 31.8176 25.8873 31.783 25.8937C31.6529 25.9255 31.5891 25.9919 31.5891 26.094V26.4753H33.9439V27.2181H31.5891V27.5986C31.5891 27.7387 31.6884 27.8152 31.8886 27.827H33.9439V28.5698H31.7165C30.8591 28.5698 30.4313 28.3321 30.4313 27.8561" fill="black"/>
<path d="M21.4726 23.5061C21.4726 23.5061 23.5583 23.4204 26.7777 22.7592C29.9011 22.098 31.1603 21.7102 32.3756 21.049C33.3623 20.4673 33.6246 19.6214 33.7674 18.6551C33.9093 17.8439 33.9552 16.6827 33.9419 16.2224C33.9256 15.6296 33.845 14.6847 32.5828 14.4857C31.3103 14.2776 28.9858 14.2102 28.6991 14.1898C28.4123 14.1694 25.5215 14.0684 24.5328 14.0388C23.544 14.0092 21.4715 14 21.4715 14C21.4715 14 19.4205 14.0092 18.4103 14.0388C17.4216 14.0684 14.5308 14.1694 14.244 14.1898C13.9573 14.2102 11.6328 14.2776 10.3603 14.4857C9.09912 14.6857 9.01953 15.6306 9.00218 16.2235C8.98892 16.6827 9.03483 17.8449 9.17667 18.6561C9.31953 19.6224 9.58177 20.4684 10.5685 21.05C11.7838 21.7102 13.043 22.098 16.1665 22.7602C19.3868 23.4214 21.4715 23.5071 21.4715 23.5071L21.4726 23.5061Z" fill="url(#paint0_radial_2487_175)"/>
<path d="M21.4726 23.3776C21.4726 23.3776 23.7317 23.2082 26.5981 22.6327C29.3644 22.0347 30.9838 21.6725 32.1818 21.0214C33.1552 20.449 33.4573 19.6776 33.5981 18.7255C33.7379 17.9265 33.7644 16.7816 33.7705 16.3286C33.7787 15.6878 33.6746 14.8133 32.4297 14.6173C31.1756 14.4112 28.8817 14.3459 28.6001 14.3255C28.3175 14.3051 25.4664 14.2051 24.4909 14.1765C23.5154 14.148 21.4715 14.1378 21.4715 14.1378C21.4715 14.1378 19.4481 14.1469 18.4522 14.1765C17.4563 14.2061 14.6257 14.3051 14.343 14.3255C14.0604 14.3459 11.7675 14.4122 10.5134 14.6173C9.26954 14.8122 9.16546 15.6867 9.17362 16.3276C9.17975 16.7806 9.20628 17.9255 9.34607 18.7245C9.48689 19.6765 9.78995 20.448 10.7624 21.0204C11.9604 21.6714 13.5808 22.0337 16.3461 22.6316C19.2124 23.2071 21.4715 23.3765 21.4715 23.3765L21.4726 23.3776Z" fill="url(#paint1_linear_2487_175)"/>
<path d="M21.4725 23.298C21.4725 23.298 23.4827 23.1694 26.6378 22.5408C29.699 21.9133 31.0051 21.501 32.1592 20.9276C32.9592 20.4469 33.3582 19.5673 33.499 18.649C33.5755 17.9398 33.6908 16.5092 33.6714 16.0735C33.6521 15.6378 33.601 14.8806 32.3643 14.6918C31.35 14.5878 28.8694 14.4245 28.5888 14.4051C28.3082 14.3857 25.4888 14.2745 24.5194 14.2684C23.55 14.2622 21.4735 14.2684 21.4735 14.2684C21.4735 14.2684 19.397 14.2622 18.4276 14.2684C17.4582 14.2745 14.6388 14.3857 14.3582 14.4051C14.0776 14.4245 11.597 14.5878 10.5827 14.6918C9.34393 14.8806 9.29291 15.6378 9.27352 16.0745C9.25414 16.5112 9.36944 17.9408 9.44597 18.65C9.58679 19.5673 9.98577 20.4469 10.7858 20.9286C11.9398 21.501 13.246 21.9133 16.3072 22.5418C19.4633 23.1694 21.4725 23.299 21.4725 23.299V23.298Z" fill="url(#paint2_radial_2487_175)"/>
<path d="M21.4726 23.1459C21.4726 23.1459 23.4001 23.0224 26.443 22.4194C29.394 21.8163 30.6113 21.4316 31.7246 20.8806C32.4807 20.4684 32.9073 19.6143 33.043 18.7327C33.1164 18.051 33.196 16.7776 33.1777 16.3592C33.1593 15.9408 33.1573 15.0622 31.9644 14.8816C30.9869 14.7816 28.595 14.6255 28.3236 14.6061C28.0522 14.5867 25.3348 14.4806 24.4001 14.4745C23.4654 14.4684 21.4736 14.4745 21.4736 14.4745C21.4736 14.4745 19.4818 14.4684 18.5471 14.4745C17.6124 14.4806 14.894 14.5867 14.6236 14.6061C14.3532 14.6255 11.9614 14.7816 10.9828 14.8816C9.78996 15.0633 9.78792 15.9408 9.76955 16.3592C9.75118 16.7776 9.82975 18.051 9.90424 18.7327C10.04 19.6143 10.4665 20.4684 11.2226 20.8806C12.3359 21.4306 13.5522 21.8153 16.5042 22.4194C19.5471 23.0224 21.4746 23.1459 21.4746 23.1459H21.4726Z" fill="url(#paint3_linear_2487_175)"/>
<path d="M21.4726 22.998C21.4726 22.998 23.3849 22.8776 26.4043 22.2929C29.3328 21.7082 30.541 21.3347 31.6451 20.801C32.3961 20.401 32.8185 19.5725 32.9532 18.7174C33.0267 18.0561 33.1043 16.8214 33.0859 16.4153C33.0675 16.0092 33.0655 15.1571 31.8818 14.9816C30.9114 14.8847 28.5379 14.7327 28.2696 14.7153C28.0012 14.698 25.3042 14.5939 24.3767 14.5878C23.4491 14.5816 21.4726 14.5878 21.4726 14.5878C21.4726 14.5878 19.4961 14.5816 18.5686 14.5878C17.641 14.5939 14.9441 14.6969 14.6757 14.7153C14.4074 14.7337 12.0339 14.8847 11.0635 14.9816C9.8798 15.1571 9.87776 16.0092 9.85939 16.4153C9.84103 16.8214 9.9196 18.0561 9.99205 18.7174C10.1267 19.5725 10.5492 20.401 11.3002 20.801C12.4043 21.3347 13.6125 21.7082 16.541 22.2929C19.5604 22.8776 21.4726 22.998 21.4726 22.998Z" fill="url(#paint4_linear_2487_175)"/>
<path d="M21.4726 22.9327C21.4726 22.9327 23.3756 22.8143 26.3807 22.2388C29.295 21.6633 30.4971 21.2959 31.596 20.7714C32.343 20.3775 32.7511 19.549 32.8848 18.7071C32.9573 18.0571 33.0491 16.8561 33.0307 16.4571C33.0124 16.0582 33.0103 15.2204 31.8328 15.0469C30.8675 14.951 28.5052 14.802 28.2379 14.7847C27.9705 14.7673 25.2868 14.6653 24.3634 14.6592C23.4399 14.6531 21.4736 14.6592 21.4736 14.6592C21.4736 14.6592 19.5062 14.6531 18.5838 14.6592C17.6614 14.6653 14.9767 14.7663 14.7093 14.7847C14.442 14.8031 12.0797 14.952 11.1144 15.0469C9.93587 15.2204 9.93383 16.0571 9.91648 16.4571C9.89914 16.8571 9.98893 18.0571 10.0624 18.7071C10.1961 19.548 10.6042 20.3775 11.3512 20.7714C12.4502 21.2959 13.6522 21.6633 16.5665 22.2388C19.5715 22.8143 21.4746 22.9327 21.4746 22.9327H21.4726Z" fill="url(#paint5_linear_2487_175)"/>
<path d="M21.3797 16.4143H16.2042L16.0052 17.1806H20.4072C20.5777 17.1847 20.7124 17.1949 20.793 17.2898C20.8695 17.3796 20.8634 17.5082 20.845 17.6214C20.7889 17.9582 20.2756 18.0041 20.2532 18.0041L17.341 17.999L16.743 20.2337H20.5032C20.6991 20.2337 20.946 20.148 21.1083 20.0255C21.296 19.8806 21.3746 19.5367 21.4032 19.4061C21.4072 19.3898 21.4103 19.3765 21.4124 19.3663C21.4368 19.2684 21.5124 18.8235 21.5297 18.649C21.5348 18.5939 21.5419 18.4245 21.2664 18.3806L21.0072 18.3255L21.2644 18.2245C21.5052 18.1643 21.5532 17.9306 21.5552 17.9204C21.5572 17.9122 21.647 17.5133 21.8011 16.8867C21.8368 16.7418 21.8246 16.6296 21.7644 16.5531C21.6583 16.4173 21.4256 16.4112 21.3807 16.4112V16.4143H21.3797ZM20.6889 19.0571C20.6093 19.35 20.4358 19.4755 20.1103 19.4796H19.9848C19.4603 19.4796 17.8685 19.4643 17.8522 19.4643H17.7195L17.7563 19.3347L17.9308 18.7276L17.9522 18.6551H18.0277L20.2777 18.6429H20.3021C20.3899 18.6429 20.5521 18.6602 20.643 18.7765C20.6828 18.8276 20.7236 18.9173 20.6899 19.0571H20.6889Z" fill="url(#paint6_linear_2487_175)"/>
<path d="M22.9102 17.5898C23.0112 17.201 23.4602 17.1816 23.4786 17.1806C23.5072 17.1806 24.8347 17.1837 25.8286 17.1837C26.3163 17.1837 26.6398 17.1837 26.7939 17.1816C26.95 16.7398 26.9357 16.7061 26.8663 16.5673C26.7806 16.4235 26.5714 16.4071 26.4857 16.4071C26.4653 16.4071 26.4531 16.4071 26.451 16.4082H26.4429C26.4306 16.4082 25.1704 16.402 24.2286 16.402C23.6765 16.402 23.3408 16.4041 23.2296 16.4082H23.2143C22.8531 16.4204 22.8225 16.4224 22.6123 16.5408C22.3398 16.7224 22.2684 17.0541 22.1592 17.5561L22.1459 17.6163C22.0643 17.9898 21.9816 18.1786 21.9286 18.2704C22.0633 18.4684 22.0653 18.6867 22.0653 18.6969V18.7082L22.0623 18.7194L21.8888 19.4755C21.799 19.8673 21.7531 19.9796 21.6786 20.1061C21.7592 20.2122 21.8837 20.2245 21.9388 20.2245H21.9704C21.9837 20.2245 23.298 20.2327 24.3204 20.2327C24.9204 20.2327 25.3031 20.2296 25.4582 20.2245C25.8898 20.2092 26.1051 19.8061 26.1347 19.7469L26.5561 18.0245H24.9439L24.7786 18.6612H25.6684L25.6296 18.7918L25.5531 19.048C25.4174 19.4714 25.0214 19.4908 25.0051 19.4918C25.0021 19.4918 24.2694 19.4949 23.6633 19.4949C23.3112 19.4949 23.0725 19.4949 22.9551 19.4918C22.8102 19.4898 22.699 19.4418 22.6265 19.349C22.5031 19.1929 22.5449 18.9765 22.551 18.952C22.5551 18.9378 22.8286 17.9061 22.9112 17.5898H22.9102Z" fill="url(#paint7_linear_2487_175)"/>
<path d="M21.9195 16.7765C21.9205 16.7551 21.9215 16.7347 21.9205 16.7153C21.9205 16.7041 21.9185 16.6929 21.9164 16.6827C21.9144 16.6663 21.9124 16.65 21.9083 16.6347C21.9062 16.6245 21.9022 16.6143 21.8991 16.6051C21.895 16.5918 21.8899 16.5786 21.8848 16.5663C21.8807 16.5571 21.8756 16.549 21.8715 16.5398C21.8654 16.5286 21.8583 16.5173 21.8511 16.5071C21.846 16.5 21.8399 16.4918 21.8338 16.4847C21.8256 16.4755 21.8175 16.4663 21.8083 16.4582C21.8022 16.452 21.795 16.4459 21.7889 16.4398C21.7797 16.4316 21.7695 16.4245 21.7593 16.4173C21.7522 16.4122 21.745 16.4071 21.7379 16.4031C21.7266 16.3959 21.7154 16.3908 21.7042 16.3847C21.6971 16.3816 21.6909 16.3776 21.6838 16.3745C21.6705 16.3684 21.6573 16.3633 21.645 16.3592C21.6399 16.3571 21.6338 16.3551 21.6287 16.3531C21.6103 16.3469 21.5919 16.3418 21.5736 16.3367C21.5705 16.3367 21.5685 16.3367 21.5654 16.3347C21.5501 16.3306 21.5348 16.3276 21.5205 16.3255C21.5144 16.3245 21.5083 16.3235 21.5032 16.3224C21.493 16.3204 21.4817 16.3194 21.4726 16.3184C21.4664 16.3184 21.4603 16.3173 21.4552 16.3163C21.4471 16.3163 21.4389 16.3143 21.4307 16.3143H16.1267L15.8746 17.2827H20.4073C20.6848 17.2888 20.7889 17.3143 20.745 17.6071C20.7011 17.9 20.2532 17.9031 20.2532 17.9031L17.2634 17.898L16.6114 20.3357H20.5042C20.5195 20.3357 20.5358 20.3357 20.5522 20.3337C20.5654 20.3337 20.5777 20.3337 20.5909 20.3316C20.6073 20.3296 20.6226 20.3276 20.6389 20.3245C20.6522 20.3224 20.6654 20.3214 20.6787 20.3184C20.695 20.3153 20.7113 20.3112 20.7277 20.3071C20.7409 20.3041 20.7542 20.302 20.7675 20.298C20.7838 20.2939 20.8001 20.2878 20.8164 20.2827C20.8297 20.2786 20.843 20.2755 20.8562 20.2704C20.8726 20.2643 20.8889 20.2582 20.9052 20.251C20.9175 20.2459 20.9297 20.2418 20.9419 20.2367C20.9583 20.2296 20.9736 20.2214 20.9899 20.2143C21.0011 20.2092 21.0134 20.2041 21.0246 20.198C21.0409 20.1898 21.0562 20.1796 21.0726 20.1704C21.0828 20.1643 21.093 20.1592 21.1022 20.1541C21.1266 20.1388 21.1501 20.1224 21.1726 20.1061C21.4134 19.9204 21.4889 19.4929 21.5144 19.3908C21.5399 19.2888 21.6164 18.8378 21.6348 18.6592C21.6573 18.4316 21.4797 18.3429 21.3011 18.3143C21.6113 18.2367 21.6583 17.9388 21.6583 17.9388C21.6583 17.9388 21.7481 17.5439 21.9032 16.9112C21.9124 16.8735 21.9185 16.8378 21.9215 16.8051C21.9226 16.7939 21.9215 16.7837 21.9226 16.7735L21.9195 16.7765ZM21.8011 16.8908C21.6481 17.5173 21.5471 17.8939 21.545 17.901C21.543 17.9112 21.5328 18.0714 21.2644 18.2276L21.0073 18.3286L21.1695 18.3653C21.445 18.4092 21.546 18.548 21.5236 18.702C21.4991 18.8755 21.4124 19.2684 21.3889 19.3663C21.3868 19.3765 21.3838 19.3898 21.3797 19.4061C21.3501 19.5357 21.2654 19.8704 21.0777 20.0153C20.9164 20.1378 20.6991 20.2357 20.5032 20.2357H16.743L17.341 18.001L20.2532 18.0061C20.2746 18.0061 20.8011 17.9806 20.8573 17.6071C20.8746 17.4939 20.9062 17.3776 20.8297 17.2867C20.7491 17.1918 20.5777 17.1867 20.4073 17.1827H16.0052L16.2042 16.4163H21.3797C21.4256 16.4163 21.6573 16.4235 21.7634 16.5582C21.8236 16.6347 21.8358 16.7469 21.8001 16.8918H21.8011V16.8908Z" fill="url(#paint8_linear_2487_175)"/>
<path d="M20.3032 18.6439H20.2787L18.0287 18.6551H17.9532L17.9318 18.7286L17.7573 19.3357L17.7206 19.4633H17.8532C17.8696 19.4643 19.4614 19.4806 19.9858 19.4806H20.1114C20.4369 19.4765 20.6103 19.351 20.6899 19.0582C20.7236 18.9184 20.6828 18.8286 20.643 18.7775C20.5522 18.6612 20.3899 18.6439 20.3022 18.6439H20.3032ZM20.6012 18.9827C20.6012 18.999 20.5971 19.0163 20.593 19.0347C20.5358 19.2429 20.4297 19.3755 20.1114 19.3796H19.4869C19.4134 19.3796 19.3379 19.3796 19.2593 19.3786H19.2552C19.1757 19.3786 19.0941 19.3775 19.0124 19.3765H18.9818C18.8685 19.3765 18.7563 19.3745 18.6481 19.3735H18.5379C18.4889 19.3735 18.442 19.3735 18.3961 19.3724H18.1634C18.1053 19.3724 18.0553 19.3724 18.0114 19.3714H17.9614C17.8951 19.3714 17.8553 19.3704 17.8553 19.3704L18.0298 18.7633L20.2818 18.752H20.3195C20.3256 18.752 20.3328 18.752 20.3409 18.7531C20.3491 18.7531 20.3583 18.7531 20.3675 18.7551C20.3705 18.7551 20.3726 18.7551 20.3756 18.7561C20.3828 18.7561 20.3889 18.7582 20.3961 18.7592C20.4001 18.7592 20.4032 18.7602 20.4073 18.7612C20.4134 18.7612 20.4205 18.7643 20.4267 18.7653C20.4307 18.7653 20.4348 18.7673 20.4389 18.7684C20.445 18.7704 20.4522 18.7724 20.4583 18.7745C20.4624 18.7755 20.4665 18.7775 20.4695 18.7786C20.4767 18.7816 20.4828 18.7847 20.4899 18.7878C20.493 18.7898 20.4971 18.7908 20.5001 18.7929C20.5093 18.798 20.5185 18.8031 20.5267 18.8092H20.5287C20.5379 18.8153 20.5461 18.8224 20.5532 18.8306C20.5552 18.8327 20.5573 18.8357 20.5593 18.8388C20.5644 18.8449 20.5695 18.851 20.5736 18.8571C20.5756 18.8602 20.5777 18.8643 20.5797 18.8684C20.5828 18.8745 20.5869 18.8816 20.5889 18.8888C20.5909 18.8929 20.592 18.898 20.594 18.902C20.5961 18.9092 20.5981 18.9173 20.5991 18.9255C20.5991 18.9306 20.6012 18.9357 20.6012 18.9408V18.9857V18.9827Z" fill="url(#paint9_radial_2487_175)"/>
<path d="M23.0083 17.6153C23.092 17.2949 23.4828 17.2816 23.4828 17.2816H26.8634C27.0552 16.7439 27.043 16.699 26.9532 16.5194C26.9409 16.498 26.9256 16.4786 26.9103 16.4612C26.9073 16.4571 26.9032 16.4541 26.9001 16.45C26.8838 16.4337 26.8675 16.4194 26.8491 16.4061L26.8399 16.4C26.8236 16.3888 26.8062 16.3786 26.7889 16.3704C26.7848 16.3684 26.7818 16.3663 26.7777 16.3653C26.7583 16.3561 26.7389 16.349 26.7185 16.3418C26.7144 16.3408 26.7093 16.3388 26.7052 16.3378C26.6869 16.3316 26.6685 16.3276 26.6501 16.3235C26.6481 16.3235 26.646 16.3235 26.645 16.3225C26.6256 16.3184 26.6073 16.3153 26.5889 16.3133C26.5848 16.3133 26.5807 16.3122 26.5767 16.3122C26.5593 16.3102 26.543 16.3092 26.5287 16.3082H26.5246C26.5103 16.3082 26.4981 16.3082 26.4869 16.3071H23.2246C23.1062 16.3112 23.0205 16.3143 22.9501 16.3204C22.796 16.3337 22.7216 16.3622 22.5583 16.4551C22.2379 16.6663 22.1675 17.0378 22.046 17.5959C21.9246 18.1541 21.792 18.2755 21.792 18.2755C21.9522 18.4612 21.9665 18.6082 21.9603 18.6622C21.9542 18.7163 21.9358 18.8184 21.8899 19.0173C21.8767 19.0776 21.8614 19.1439 21.844 19.2173C21.8277 19.2908 21.8093 19.3694 21.7899 19.4541C21.7511 19.6225 21.7216 19.7378 21.694 19.8225C21.6848 19.851 21.6767 19.8755 21.6675 19.899C21.6328 19.9898 21.593 20.0204 21.5511 20.0878C21.5624 20.1102 21.5838 20.15 21.5971 20.1684C21.6001 20.1725 21.6032 20.1765 21.6062 20.1796C21.6195 20.1959 21.6338 20.2112 21.6491 20.2245C21.6511 20.2265 21.6542 20.2286 21.6562 20.2306C21.6695 20.2418 21.6838 20.252 21.6981 20.2612C21.7011 20.2633 21.7032 20.2653 21.7062 20.2663C21.7216 20.2755 21.7379 20.2837 21.7532 20.2898C21.7562 20.2908 21.7603 20.2929 21.7634 20.2939C21.7787 20.3 21.794 20.3051 21.8083 20.3092H21.8103C21.8256 20.3133 21.8409 20.3163 21.8542 20.3184C21.8573 20.3184 21.8603 20.3194 21.8634 20.3204C21.8767 20.3225 21.8889 20.3235 21.9001 20.3245H22.8124C22.8879 20.3245 22.9675 20.3245 23.0481 20.3255H25.2563C25.2818 20.3255 25.3062 20.3255 25.3287 20.3245C25.3511 20.3245 25.3705 20.3245 25.3899 20.3235H25.4052C25.4236 20.3235 25.4409 20.3235 25.4552 20.3225C25.9869 20.3031 26.1481 19.9143 26.2246 19.7776C26.3011 19.6408 26.694 17.9122 26.694 17.9122L24.8593 17.9194L24.7501 18.3388L24.6409 18.7582H25.5256L25.5124 18.8041C25.5083 18.8194 25.5022 18.8398 25.494 18.8663C25.4889 18.8847 25.4828 18.9051 25.4746 18.9296C25.4675 18.9541 25.4593 18.9827 25.4491 19.0143C25.4277 19.0816 25.3981 19.1367 25.3644 19.1816C25.3195 19.2418 25.2675 19.2847 25.2165 19.3143C25.2042 19.3214 25.1909 19.3286 25.1787 19.3347C25.1542 19.3469 25.1297 19.3561 25.1083 19.3633C25.0971 19.3663 25.0869 19.3694 25.0767 19.3725C25.0573 19.3776 25.0399 19.3806 25.0267 19.3827C25.0063 19.3857 24.995 19.3857 24.995 19.3857H22.9501C22.5532 19.3796 22.6511 18.9582 22.6511 18.9582C22.6511 18.9582 22.9175 17.9306 23.0011 17.6102L23.0083 17.6153ZM22.6267 19.349C22.7001 19.4408 22.8103 19.4888 22.9552 19.4918C23.0726 19.4939 23.3114 19.4949 23.6634 19.4949C24.2695 19.4949 25.0011 19.4918 25.0052 19.4918C25.0216 19.4918 25.4175 19.4714 25.5532 19.048L25.6297 18.7918L25.6685 18.6612H24.7787L24.944 18.0245H26.5562L26.1348 19.7469C26.1052 19.8071 25.8889 20.2092 25.4583 20.2245C25.3022 20.2306 24.9195 20.2327 24.3205 20.2327C23.2981 20.2327 21.9838 20.2245 21.9705 20.2245H21.9389C21.8848 20.2245 21.7593 20.2122 21.6787 20.1061C21.7981 19.9622 21.8522 19.7367 21.9001 19.4765L22.0644 18.7082C22.0644 18.7082 22.0787 18.6429 22.0828 18.5949C22.0869 18.5469 22.0624 18.4684 21.9277 18.2704C21.9807 18.1786 22.0634 17.9888 22.145 17.6163L22.1583 17.5561C22.2675 17.0541 22.3399 16.7225 22.6114 16.5408C22.8205 16.4225 22.8522 16.4214 23.2134 16.4092H23.2287C23.3389 16.4051 23.6746 16.4031 24.2277 16.4031C25.1695 16.4031 26.4297 16.4092 26.442 16.4092H26.4501C26.4501 16.4092 26.4644 16.4092 26.4848 16.4092C26.5705 16.4092 26.7797 16.4245 26.8654 16.5694C26.9348 16.7082 26.9491 16.7408 26.793 17.1837C26.6389 17.1847 26.3154 17.1857 25.8277 17.1857C24.8348 17.1857 23.5062 17.1827 23.4777 17.1827C23.4583 17.1827 23.0103 17.202 22.9093 17.5918C22.8267 17.9082 22.5532 18.9398 22.5491 18.9541C22.544 18.9786 22.5011 19.1949 22.6246 19.351H22.6267V19.349Z" fill="url(#paint10_linear_2487_175)"/>
</g>
</g>
<defs>
<radialGradient id="paint0_radial_2487_175" cx="0" cy="0" r="1" gradientUnits="userSpaceOnUse" gradientTransform="translate(21.3745 15.3649) rotate(90.71) scale(9.69184 16.1854)">
<stop stop-color="#808080"/>
<stop offset="0.53" stop-color="#404040"/>
<stop offset="0.74" stop-color="#4C4C4C"/>
<stop offset="0.98" stop-color="#575757"/>
</radialGradient>
<linearGradient id="paint1_linear_2487_175" x1="21.4726" y1="23.3776" x2="21.4726" y2="14.1378" gradientUnits="userSpaceOnUse">
<stop/>
<stop offset="0.07" stop-color="#0C0C0C"/>
<stop offset="0.19" stop-color="#1A1A1A"/>
<stop offset="0.33" stop-color="#232323"/>
<stop offset="0.55" stop-color="#262626"/>
<stop offset="0.98" stop-color="#292929"/>
</linearGradient>
<radialGradient id="paint2_radial_2487_175" cx="0" cy="0" r="1" gradientUnits="userSpaceOnUse" gradientTransform="translate(21.5069 13.428) rotate(89.84) scale(11.5092 15.3072)">
<stop offset="0.63" stop-color="#949494"/>
<stop offset="0.65" stop-color="#9F9F9F"/>
<stop offset="0.7" stop-color="#BEBEBE"/>
<stop offset="0.76" stop-color="#F0F0F0"/>
<stop offset="0.77" stop-color="white"/>
<stop offset="0.79" stop-color="#DADADA"/>
<stop offset="0.81" stop-color="#A7A7A7"/>
<stop offset="0.83" stop-color="#888888"/>
<stop offset="0.84" stop-color="#7D7D7D"/>
<stop offset="0.92" stop-color="#919191"/>
<stop offset="1" stop-color="white"/>
</radialGradient>
<linearGradient id="paint3_linear_2487_175" x1="21.4736" y1="23.1459" x2="21.4736" y2="14.4714" gradientUnits="userSpaceOnUse">
<stop offset="0.11" stop-color="#DBDBDB"/>
<stop offset="0.88" stop-color="#363636"/>
</linearGradient>
<linearGradient id="paint4_linear_2487_175" x1="21.4185" y1="24.1214" x2="21.491" y2="13.9439" gradientUnits="userSpaceOnUse">
<stop offset="0.11"/>
<stop offset="0.41" stop-color="#3C3C3C"/>
<stop offset="0.68" stop-color="#6A6A6A"/>
<stop offset="0.88" stop-color="#868686"/>
<stop offset="1" stop-color="#919191"/>
</linearGradient>
<linearGradient id="paint5_linear_2487_175" x1="21.4736" y1="14.8439" x2="21.4736" y2="21.4663" gradientUnits="userSpaceOnUse">
<stop offset="0.11" stop-color="#363636"/>
<stop offset="0.78"/>
</linearGradient>
<linearGradient id="paint6_linear_2487_175" x1="18.9134" y1="16.4112" x2="18.9134" y2="20.2337" gradientUnits="userSpaceOnUse">
<stop stop-color="white"/>
<stop offset="0.16" stop-color="#F3F3F3"/>
<stop offset="0.36" stop-color="#CECECE"/>
<stop offset="0.37" stop-color="#AEAEAE"/>
<stop offset="0.38" stop-color="#ABABAB"/>
<stop offset="0.48" stop-color="#979797"/>
<stop offset="0.58" stop-color="#8B8B8B"/>
<stop offset="0.68" stop-color="#878787"/>
<stop offset="1" stop-color="#303030"/>
</linearGradient>
<linearGradient id="paint7_linear_2487_175" x1="24.298" y1="16.402" x2="24.298" y2="20.2327" gradientUnits="userSpaceOnUse">
<stop stop-color="white"/>
<stop offset="0.16" stop-color="#F3F3F3"/>
<stop offset="0.36" stop-color="#CECECE"/>
<stop offset="0.37" stop-color="#AEAEAE"/>
<stop offset="0.38" stop-color="#ABABAB"/>
<stop offset="0.48" stop-color="#979797"/>
<stop offset="0.58" stop-color="#8B8B8B"/>
<stop offset="0.68" stop-color="#878787"/>
<stop offset="1" stop-color="#303030"/>
</linearGradient>
<linearGradient id="paint8_linear_2487_175" x1="18.7634" y1="16.2" x2="19.4889" y2="20.4735" gradientUnits="userSpaceOnUse">
<stop stop-color="#F9F9F9"/>
<stop offset="0.07" stop-color="#C9C9C9"/>
<stop offset="0.13" stop-color="#A0A0A0"/>
<stop offset="0.19" stop-color="#818181"/>
<stop offset="0.25" stop-color="#6B6B6B"/>
<stop offset="0.31" stop-color="#5D5D5D"/>
<stop offset="0.36" stop-color="#595959"/>
<stop offset="0.45" stop-color="#5A5A5A"/>
<stop offset="0.48" stop-color="#616161"/>
<stop offset="0.5" stop-color="#6D6D6D"/>
<stop offset="0.52" stop-color="#818181"/>
<stop offset="0.77" stop-color="#A8A8A8"/>
<stop offset="0.79" stop-color="#838383"/>
<stop offset="0.82" stop-color="#626262"/>
<stop offset="0.84" stop-color="#464646"/>
<stop offset="0.87" stop-color="#313131"/>
<stop offset="0.9" stop-color="#222222"/>
<stop offset="0.94" stop-color="#191919"/>
<stop offset="1" stop-color="#171717"/>
</linearGradient>
<radialGradient id="paint9_radial_2487_175" cx="0" cy="0" r="1" gradientUnits="userSpaceOnUse" gradientTransform="translate(19.2165 19.6516) rotate(-88.99) scale(1.32245 1.79853)">
<stop offset="0.44" stop-color="white"/>
<stop offset="1" stop-color="#4D4D4D"/>
</radialGradient>
<linearGradient id="paint10_linear_2487_175" x1="23.842" y1="15.9816" x2="24.6389" y2="20.3327" gradientUnits="userSpaceOnUse">
<stop stop-color="#F9F9F9"/>
<stop offset="0.07" stop-color="#C9C9C9"/>
<stop offset="0.13" stop-color="#A0A0A0"/>
<stop offset="0.19" stop-color="#818181"/>
<stop offset="0.25" stop-color="#6B6B6B"/>
<stop offset="0.31" stop-color="#5D5D5D"/>
<stop offset="0.36" stop-color="#595959"/>
<stop offset="0.45" stop-color="#5A5A5A"/>
<stop offset="0.48" stop-color="#616161"/>
<stop offset="0.5" stop-color="#6D6D6D"/>
<stop offset="0.52" stop-color="#818181"/>
<stop offset="0.79" stop-color="#A8A8A8"/>
<stop offset="0.81" stop-color="#828282"/>
<stop offset="0.83" stop-color="#616161"/>
<stop offset="0.85" stop-color="#464646"/>
<stop offset="0.87" stop-color="#313131"/>
<stop offset="0.9" stop-color="#222222"/>
<stop offset="0.93" stop-color="#191919"/>
<stop offset="0.98" stop-color="#171717"/>
</linearGradient>
<clipPath id="clip0_2487_175">
<rect width="42.8" height="62" fill="white"/>
</clipPath>
</defs>
</svg>
