<svg width="43" height="62" viewBox="0 0 43 62" fill="none" xmlns="http://www.w3.org/2000/svg">
<g clip-path="url(#clip0_2487_175)">
<path opacity="0.2" d="M35 58.4C35 60.4 28.8 62 21.2 62C13.6 62 7.40002 60.4 7.40002 58.4C7.40002 56.4 13.6 54.8 21.2 54.8C28.8 54.7 35 56.4 35 58.4Z" fill="#05141F"/>
<path d="M21.4 0C9.6 0 0 9.6 0 21.4C0 34 21.4 58.5 21.4 58.5C21.4 58.5 42.8 35 42.8 21.4C42.8 9.6 33.2 0 21.4 0ZM21.4 33.7C14.1 33.7 8.2 27.8 8.2 20.5C8.2 13.2 14.1 7.3 21.4 7.3C28.7 7.3 34.6 13.2 34.6 20.5C34.6 27.8 28.7 33.7 21.4 33.7Z" fill="#010101"/>
<path d="M21.7 38.4C30.9232 38.4 38.4 30.9232 38.4 21.7C38.4 12.4768 30.9232 5 21.7 5C12.4768 5 5 12.4768 5 21.7C5 30.9232 12.4768 38.4 21.7 38.4Z" fill="white"/>
<path d="M21.5006 27.814C21.5006 27.814 24.0927 27.7075 28.0937 26.8857C31.9755 26.064 33.5403 25.5821 35.0507 24.7603C36.277 24.0375 36.6029 22.9862 36.7804 21.7853C36.9567 20.7771 37.0138 19.3339 36.9973 18.762C36.977 18.0252 36.8768 16.8509 35.3081 16.6036C33.7268 16.3449 30.8379 16.2612 30.4816 16.2359C30.1252 16.2105 26.5326 16.085 25.3038 16.0482C24.0749 16.0114 21.4993 16 21.4993 16C21.4993 16 18.9504 16.0114 17.695 16.0482C16.4661 16.085 12.8735 16.2105 12.5172 16.2359C12.1608 16.2612 9.27198 16.3449 7.69061 16.6036C6.12318 16.8522 6.02427 18.0265 6.00271 18.7633C5.98622 19.3339 6.04329 20.7784 6.21956 21.7865C6.3971 22.9875 6.72301 24.0387 7.94931 24.7616C9.45967 25.5821 11.0246 26.064 14.9063 26.887C18.9085 27.7087 21.4993 27.8153 21.4993 27.8153L21.5006 27.814Z" fill="url(#paint0_radial_2487_175)"/>
<path d="M21.5007 27.6542C21.5007 27.6542 24.3084 27.4437 27.8706 26.7285C31.3085 25.9853 33.321 25.5352 34.8098 24.7261C36.0196 24.0147 36.395 23.0559 36.57 21.8728C36.7437 20.8798 36.7767 19.457 36.7843 18.8939C36.7945 18.0975 36.6651 17.0107 35.118 16.7672C33.5594 16.5111 30.7087 16.4299 30.3587 16.4045C30.0074 16.3792 26.4642 16.2549 25.2519 16.2194C24.0395 16.1839 21.4994 16.1712 21.4994 16.1712C21.4994 16.1712 18.9847 16.1826 17.747 16.2194C16.5093 16.2562 12.9915 16.3792 12.6402 16.4045C12.289 16.4299 9.43945 16.5123 7.88091 16.7672C6.33504 17.0094 6.20569 18.0962 6.21584 18.8926C6.22344 19.4557 6.25642 20.8785 6.43015 21.8715C6.60515 23.0547 6.98179 24.0134 8.19034 24.7248C9.67913 25.5339 11.6929 25.9841 15.1296 26.7272C18.6918 27.4424 21.4994 27.653 21.4994 27.653L21.5007 27.6542Z" fill="url(#paint1_linear_2487_175)"/>
<path d="M21.5005 27.5553C21.5005 27.5553 23.9988 27.3955 27.9199 26.6143C31.7243 25.8344 33.3475 25.3221 34.7818 24.6094C35.776 24.0121 36.2719 22.919 36.4469 21.7776C36.542 20.8963 36.6853 19.1184 36.6612 18.5769C36.6371 18.0354 36.5737 17.0944 35.0367 16.8598C33.7761 16.7304 30.6933 16.5275 30.3446 16.5035C29.9958 16.4794 26.4919 16.3411 25.2872 16.3335C24.0825 16.3259 21.5018 16.3335 21.5018 16.3335C21.5018 16.3335 18.9211 16.3259 17.7165 16.3335C16.5117 16.3411 13.0078 16.4794 12.6591 16.5035C12.3104 16.5275 9.22752 16.7304 7.96699 16.8598C6.42747 17.0944 6.36406 18.0354 6.33997 18.5781C6.31587 19.1209 6.45917 20.8976 6.55428 21.7789C6.72929 22.919 7.22513 24.0121 8.21935 24.6107C9.65361 25.3221 11.2768 25.8344 15.0813 26.6156C19.0036 27.3955 21.5005 27.5566 21.5005 27.5566V27.5553Z" fill="url(#paint2_radial_2487_175)"/>
<path d="M21.5006 27.3663C21.5006 27.3663 23.8961 27.2129 27.6777 26.4634C31.3452 25.714 32.8581 25.2359 34.2416 24.5511C35.1813 24.0387 35.7114 22.9773 35.8801 21.8816C35.9714 21.0345 36.0703 19.4519 36.0475 18.9319C36.0246 18.412 36.0221 17.3201 34.5396 17.0957C33.3248 16.9714 30.3522 16.7774 30.0149 16.7533C29.6776 16.7292 26.3005 16.5973 25.1389 16.5897C23.9773 16.5821 21.5019 16.5897 21.5019 16.5897C21.5019 16.5897 19.0265 16.5821 17.8649 16.5897C16.7033 16.5973 13.325 16.7292 12.9889 16.7533C12.6529 16.7774 9.68033 16.9714 8.46418 17.0957C6.98173 17.3214 6.97919 18.412 6.95636 18.9319C6.93354 19.4519 7.03118 21.0345 7.12376 21.8816C7.29242 22.9773 7.82251 24.0387 8.7622 24.5511C10.1457 25.2346 11.6574 25.7127 15.3261 26.4634C19.1076 27.2129 21.5032 27.3663 21.5032 27.3663H21.5006Z" fill="url(#paint3_linear_2487_175)"/>
<path d="M21.5007 27.1825C21.5007 27.1825 23.8772 27.0328 27.6296 26.3062C31.2692 25.5795 32.7707 25.1154 34.1428 24.4522C35.0762 23.9551 35.6012 22.9253 35.7686 21.8626C35.8599 21.0409 35.9563 19.5064 35.9334 19.0017C35.9106 18.497 35.9081 17.4381 34.437 17.22C33.231 17.0995 30.2813 16.9105 29.9478 16.889C29.6143 16.8674 26.2626 16.7381 25.1098 16.7305C23.9571 16.7228 21.5007 16.7305 21.5007 16.7305C21.5007 16.7305 19.0443 16.7228 17.8916 16.7305C16.7389 16.7381 13.3872 16.8661 13.0537 16.889C12.7202 16.9118 9.77047 17.0995 8.56446 17.22C7.09342 17.4381 7.09089 18.497 7.06806 19.0017C7.04523 19.5064 7.14288 21.0409 7.23292 21.8626C7.40031 22.9253 7.92532 23.9551 8.85867 24.4522C10.2308 25.1154 11.7323 25.5795 15.3718 26.3062C19.1242 27.0328 21.5007 27.1825 21.5007 27.1825Z" fill="url(#paint4_linear_2487_175)"/>
<path d="M21.5006 27.1013C21.5006 27.1013 23.8657 26.9542 27.6003 26.239C31.2221 25.5237 32.716 25.0672 34.0818 24.4154C35.0101 23.9259 35.5173 22.8962 35.6835 21.8499C35.7735 21.0421 35.8876 19.5495 35.8648 19.0537C35.842 18.5578 35.8394 17.5167 34.376 17.3011C33.1763 17.1819 30.2406 16.9968 29.9083 16.9752C29.5761 16.9536 26.2409 16.8268 25.0932 16.8192C23.9456 16.8116 21.5018 16.8192 21.5018 16.8192C21.5018 16.8192 19.0569 16.8116 17.9105 16.8192C16.7641 16.8268 13.4276 16.9524 13.0954 16.9752C12.7631 16.998 9.82739 17.1832 8.62773 17.3011C7.16303 17.5167 7.16049 18.5566 7.13894 19.0537C7.11738 19.5508 7.22897 21.0421 7.32028 21.8499C7.4864 22.8949 7.99366 23.9259 8.92194 24.4154C10.2877 25.0672 11.7816 25.5237 15.4034 26.239C19.138 26.9542 21.5031 27.1013 21.5031 27.1013H21.5006Z" fill="url(#paint5_linear_2487_175)"/>
<path d="M21.3852 19.0004H14.9532L14.7059 19.9528H20.1766C20.3884 19.9579 20.5558 19.9705 20.656 20.0885C20.7511 20.2001 20.7435 20.3599 20.7207 20.5006C20.6509 20.9191 20.0131 20.9762 19.9852 20.9762L16.3659 20.9698L15.6228 23.7471H20.2958C20.5393 23.7471 20.8462 23.6405 21.0479 23.4884C21.2812 23.3083 21.3788 22.8809 21.4143 22.7186C21.4194 22.6983 21.4232 22.6818 21.4258 22.6691C21.4562 22.5474 21.55 21.9945 21.5716 21.7776C21.5779 21.7092 21.5868 21.4987 21.2444 21.4441L20.9223 21.3756L21.2419 21.2501C21.5412 21.1753 21.6008 20.8849 21.6033 20.8722C21.6058 20.862 21.7174 20.3662 21.9089 19.5876C21.9533 19.4075 21.9381 19.268 21.8633 19.1729C21.7314 19.0042 21.4422 18.9966 21.3864 18.9966V19.0004H21.3852ZM20.5266 22.2849C20.4277 22.6489 20.2121 22.8048 19.8076 22.8099H19.6516C18.9998 22.8099 17.0216 22.7909 17.0013 22.7909H16.8364L16.8821 22.6298L17.0989 21.8753L17.1255 21.7853H17.2194L20.0156 21.77H20.046C20.1551 21.77 20.3567 21.7916 20.4696 21.9362C20.519 21.9996 20.5698 22.1112 20.5279 22.2849H20.5266Z" fill="url(#paint6_linear_2487_175)"/>
<path d="M23.2874 20.4613C23.4129 19.9782 23.9709 19.9541 23.9937 19.9528C24.0292 19.9528 25.6791 19.9566 26.9142 19.9566C27.5204 19.9566 27.9224 19.9566 28.1139 19.9541C28.3079 19.405 28.2902 19.3631 28.2039 19.1906C28.0974 19.0118 27.8374 18.9915 27.7309 18.9915C27.7056 18.9915 27.6903 18.9915 27.6878 18.9928H27.6777C27.6624 18.9928 26.0963 18.9852 24.9258 18.9852C24.2397 18.9852 23.8225 18.9877 23.6843 18.9928H23.6653C23.2163 19.008 23.1783 19.0106 22.9171 19.1577C22.5785 19.3834 22.4897 19.7955 22.354 20.4195L22.3375 20.4943C22.2361 20.9584 22.1334 21.193 22.0674 21.3072C22.2348 21.5532 22.2373 21.8246 22.2373 21.8372V21.8512L22.2335 21.8651L22.018 22.8048C21.9064 23.2918 21.8493 23.4313 21.7567 23.5886C21.8569 23.7204 22.0116 23.7357 22.0801 23.7357H22.1194C22.1359 23.7357 23.7693 23.7458 25.0399 23.7458C25.7856 23.7458 26.2611 23.742 26.4539 23.7357C26.9903 23.7166 27.2579 23.2157 27.2947 23.1422L27.8184 21.0015H25.8148L25.6093 21.7929H26.7151L26.667 21.9552L26.5718 22.2735C26.4032 22.7998 25.9111 22.8239 25.8909 22.8251C25.887 22.8251 24.9765 22.8289 24.2232 22.8289C23.7857 22.8289 23.489 22.8289 23.3432 22.8251C23.1631 22.8226 23.0249 22.763 22.9348 22.6476C22.7814 22.4536 22.8334 22.1847 22.841 22.1543C22.846 22.1365 23.1859 20.8544 23.2886 20.4613H23.2874Z" fill="url(#paint7_linear_2487_175)"/>
<path d="M22.0561 19.4506C22.0574 19.424 22.0587 19.3986 22.0574 19.3745C22.0574 19.3606 22.0549 19.3466 22.0523 19.3339C22.0498 19.3137 22.0473 19.2934 22.0422 19.2743C22.0396 19.2617 22.0346 19.249 22.0308 19.2376C22.0257 19.2211 22.0194 19.2046 22.013 19.1894C22.0079 19.178 22.0016 19.1678 21.9965 19.1564C21.9889 19.1425 21.98 19.1285 21.9712 19.1158C21.9648 19.1069 21.9572 19.0968 21.9496 19.0879C21.9395 19.0765 21.9293 19.0651 21.9179 19.055C21.9103 19.0473 21.9014 19.0397 21.8938 19.0321C21.8824 19.022 21.8697 19.0131 21.857 19.0042C21.8482 18.9979 21.8393 18.9915 21.8304 18.9865C21.8165 18.9776 21.8025 18.9713 21.7886 18.9636C21.7797 18.9598 21.7721 18.9548 21.7632 18.951C21.7467 18.9434 21.7302 18.937 21.715 18.9319C21.7087 18.9294 21.701 18.9269 21.6947 18.9243C21.6719 18.9167 21.6491 18.9104 21.6262 18.904C21.6224 18.904 21.6199 18.904 21.6161 18.9015C21.5971 18.8964 21.578 18.8926 21.5603 18.8901C21.5527 18.8888 21.5451 18.8876 21.5387 18.8863C21.526 18.8838 21.5121 18.8825 21.5007 18.8812C21.4931 18.8812 21.4855 18.8799 21.4791 18.8787C21.469 18.8787 21.4588 18.8761 21.4487 18.8761H14.8569L14.5437 20.0796H20.1767C20.5217 20.0872 20.651 20.1189 20.5965 20.4829C20.542 20.8468 19.9853 20.8506 19.9853 20.8506L16.2696 20.8443L15.4593 23.8739H20.2972C20.3162 23.8739 20.3365 23.8739 20.3568 23.8714C20.3733 23.8714 20.3885 23.8714 20.405 23.8688C20.4253 23.8663 20.4443 23.8637 20.4646 23.8599C20.4811 23.8574 20.4976 23.8561 20.5141 23.8523C20.5344 23.8485 20.5546 23.8435 20.5749 23.8384C20.5914 23.8346 20.6079 23.832 20.6244 23.827C20.6447 23.8219 20.665 23.8143 20.6853 23.8079C20.7018 23.8029 20.7182 23.7991 20.7347 23.7927C20.755 23.7851 20.7753 23.7775 20.7956 23.7686C20.8108 23.7623 20.826 23.7572 20.8412 23.7509C20.8615 23.742 20.8806 23.7319 20.9009 23.723C20.9148 23.7166 20.93 23.7103 20.944 23.7027C20.9643 23.6925 20.9833 23.6799 21.0036 23.6684C21.0163 23.6608 21.0289 23.6545 21.0403 23.6482C21.0708 23.6291 21.1 23.6088 21.1278 23.5886C21.4271 23.3578 21.521 22.8264 21.5527 22.6996C21.5844 22.5728 21.6795 22.0123 21.7023 21.7903C21.7302 21.5075 21.5096 21.3972 21.2876 21.3617C21.6732 21.2653 21.7315 20.895 21.7315 20.895C21.7315 20.895 21.8431 20.4043 22.0358 19.618C22.0473 19.5711 22.0549 19.5267 22.0587 19.4861C22.0599 19.4722 22.0587 19.4595 22.0599 19.4468L22.0561 19.4506ZM21.909 19.5926C21.7188 20.3713 21.5933 20.8392 21.5907 20.8481C21.5882 20.8608 21.5755 21.0599 21.242 21.2539L20.9224 21.3795L21.124 21.4251C21.4664 21.4796 21.592 21.6521 21.5641 21.8436C21.5337 22.0592 21.4259 22.5474 21.3967 22.6692C21.3942 22.6818 21.3904 22.6983 21.3853 22.7186C21.3485 22.8797 21.2433 23.2956 21.0099 23.4757C20.8095 23.6279 20.5394 23.7496 20.2959 23.7496H15.6229L16.366 20.9724L19.9853 20.9787C20.0119 20.9787 20.6662 20.947 20.736 20.4829C20.7576 20.3421 20.7969 20.1975 20.7018 20.0847C20.6016 19.9667 20.3885 19.9604 20.1767 19.9553H14.706L14.9533 19.003H21.3853C21.4423 19.003 21.7302 19.0118 21.8621 19.1792C21.9369 19.2743 21.9521 19.4138 21.9078 19.5939H21.909V19.5926Z" fill="url(#paint8_linear_2487_175)"/>
<path d="M20.0474 21.7713H20.0169L17.2207 21.7853H17.1269L17.1003 21.8766L16.8834 22.6311L16.8378 22.7896H17.0026C17.0229 22.7909 19.0012 22.8112 19.653 22.8112H19.809C20.2135 22.8061 20.4291 22.6501 20.528 22.2862C20.5699 22.1124 20.5191 22.0008 20.4697 21.9374C20.3568 21.7929 20.1552 21.7713 20.0461 21.7713H20.0474ZM20.4177 22.1923C20.4177 22.2126 20.4126 22.2342 20.4075 22.257C20.3365 22.5157 20.2046 22.6806 19.809 22.6856H19.0329C18.9416 22.6856 18.8477 22.6856 18.7501 22.6844H18.745C18.6461 22.6844 18.5447 22.6831 18.4432 22.6818H18.4052C18.2644 22.6818 18.1249 22.6793 17.9905 22.678H17.8535C17.7927 22.678 17.7343 22.678 17.6773 22.6768H17.3881C17.3159 22.6768 17.2537 22.6768 17.1992 22.6755H17.137C17.0546 22.6755 17.0052 22.6742 17.0052 22.6742L17.222 21.9197L20.0208 21.9057H20.0677C20.0753 21.9057 20.0842 21.9057 20.0943 21.907C20.1044 21.907 20.1159 21.907 20.1273 21.9095C20.1311 21.9095 20.1336 21.9095 20.1374 21.9108C20.1463 21.9108 20.1539 21.9133 20.1628 21.9146C20.1679 21.9146 20.1717 21.9159 20.1767 21.9171C20.1843 21.9171 20.1932 21.9209 20.2008 21.9222C20.2059 21.9222 20.211 21.9248 20.216 21.926C20.2237 21.9286 20.2325 21.9311 20.2401 21.9336C20.2452 21.9349 20.2503 21.9374 20.2541 21.9387C20.263 21.9425 20.2706 21.9463 20.2795 21.9501C20.2833 21.9527 20.2883 21.9539 20.2921 21.9565C20.3035 21.9628 20.315 21.9691 20.3251 21.9767H20.3276C20.3391 21.9844 20.3492 21.9932 20.3581 22.0034C20.3606 22.0059 20.3631 22.0097 20.3657 22.0135C20.372 22.0211 20.3784 22.0287 20.3834 22.0364C20.386 22.0402 20.3885 22.0452 20.391 22.0503C20.3949 22.0579 20.3999 22.0668 20.4025 22.0757C20.405 22.0807 20.4063 22.0871 20.4088 22.0921C20.4113 22.101 20.4139 22.1112 20.4151 22.1213C20.4151 22.1277 20.4177 22.134 20.4177 22.1403V22.1961V22.1923Z" fill="url(#paint9_radial_2487_175)"/>
<path d="M23.4092 20.493C23.5132 20.0948 23.9989 20.0783 23.9989 20.0783H28.2002C28.4386 19.41 28.4234 19.3542 28.3118 19.131C28.2966 19.1044 28.2776 19.0803 28.2585 19.0588C28.2547 19.0537 28.2497 19.0499 28.2459 19.0448C28.2256 19.0245 28.2053 19.0068 28.1825 18.9903L28.171 18.9827C28.1507 18.9687 28.1292 18.956 28.1076 18.9459C28.1026 18.9434 28.0988 18.9408 28.0937 18.9396C28.0696 18.9281 28.0455 18.9193 28.0201 18.9104C28.0151 18.9091 28.0087 18.9066 28.0036 18.9053C27.9808 18.8977 27.958 18.8926 27.9352 18.8876C27.9326 18.8876 27.9301 18.8876 27.9288 18.8863C27.9047 18.8812 27.8819 18.8774 27.8591 18.8749C27.854 18.8749 27.8489 18.8736 27.8439 18.8736C27.8223 18.8711 27.802 18.8698 27.7843 18.8685H27.7792C27.7614 18.8685 27.7462 18.8685 27.7323 18.8673H23.678C23.5309 18.8723 23.4244 18.8761 23.3369 18.8838C23.1454 18.9002 23.0528 18.9358 22.8499 19.0512C22.4517 19.3137 22.3642 19.7753 22.2133 20.4689C22.0624 21.1626 21.8975 21.3135 21.8975 21.3135C22.0966 21.5443 22.1144 21.7269 22.1068 21.7941C22.0992 21.8614 22.0764 21.9882 22.0193 22.2355C22.0028 22.3103 21.9838 22.3927 21.9622 22.484C21.9419 22.5753 21.9191 22.673 21.895 22.7782C21.8468 22.9875 21.81 23.1308 21.7758 23.236C21.7644 23.2715 21.7542 23.302 21.7428 23.3311C21.6997 23.444 21.6503 23.482 21.5983 23.5657C21.6122 23.5936 21.6388 23.6431 21.6553 23.6659C21.6591 23.671 21.6629 23.6761 21.6667 23.6799C21.6832 23.7002 21.701 23.7192 21.72 23.7357C21.7225 23.7382 21.7263 23.7407 21.7289 23.7433C21.7454 23.7572 21.7631 23.7699 21.7809 23.7813C21.7847 23.7839 21.7872 23.7864 21.791 23.7877C21.81 23.7991 21.8303 23.8092 21.8494 23.8168C21.8532 23.8181 21.8582 23.8206 21.862 23.8219C21.8811 23.8295 21.9001 23.8358 21.9178 23.8409H21.9204C21.9394 23.846 21.9584 23.8498 21.9749 23.8523C21.9787 23.8523 21.9825 23.8536 21.9863 23.8549C22.0028 23.8574 22.018 23.8587 22.032 23.8599H23.1657C23.2595 23.8599 23.3584 23.8599 23.4586 23.8612H26.2029C26.2346 23.8612 26.265 23.8612 26.2929 23.8599C26.3208 23.8599 26.3449 23.8599 26.369 23.8587H26.388C26.4109 23.8587 26.4324 23.8587 26.4502 23.8574C27.1109 23.8333 27.3112 23.3501 27.4064 23.1802C27.5015 23.0103 27.9897 20.8621 27.9897 20.8621L25.7096 20.8709L25.5739 21.3921L25.4382 21.9133H26.5377L26.5212 21.9704C26.5161 21.9894 26.5085 22.0148 26.4984 22.0478C26.492 22.0706 26.4844 22.096 26.4743 22.1264C26.4654 22.1568 26.4552 22.1923 26.4426 22.2316C26.4159 22.3153 26.3792 22.3838 26.3373 22.4396C26.2815 22.5144 26.2168 22.5677 26.1534 22.6045C26.1382 22.6134 26.1217 22.6222 26.1065 22.6298C26.0761 22.6451 26.0456 22.6565 26.019 22.6654C26.0051 22.6692 25.9924 22.673 25.9797 22.6768C25.9556 22.6831 25.934 22.6869 25.9176 22.6894C25.8922 22.6933 25.8782 22.6933 25.8782 22.6933H23.3369C22.8436 22.6856 22.9653 22.1619 22.9653 22.1619C22.9653 22.1619 23.2963 20.8849 23.4003 20.4867L23.4092 20.493ZM22.9349 22.6476C23.0262 22.7617 23.1632 22.8213 23.3432 22.8251C23.4891 22.8277 23.7858 22.8289 24.2233 22.8289C24.9766 22.8289 25.8859 22.8251 25.8909 22.8251C25.9112 22.8251 26.4033 22.7998 26.5719 22.2735L26.667 21.9552L26.7152 21.7929H25.6094L25.8148 21.0016H27.8185L27.2948 23.1422C27.258 23.217 26.9891 23.7166 26.454 23.7357C26.26 23.7433 25.7844 23.7458 25.04 23.7458C23.7693 23.7458 22.136 23.7357 22.1195 23.7357H22.0802C22.0129 23.7357 21.857 23.7204 21.7568 23.5886C21.9052 23.4098 21.9724 23.1295 22.032 22.8061L22.2361 21.8512C22.2361 21.8512 22.2539 21.77 22.259 21.7104C22.264 21.6508 22.2336 21.5532 22.0662 21.3072C22.1322 21.193 22.2349 20.9572 22.3363 20.4943L22.3528 20.4195C22.4885 19.7956 22.5785 19.3834 22.9159 19.1577C23.1758 19.0106 23.2151 19.0093 23.6641 18.9941H23.6831C23.82 18.989 24.2373 18.9865 24.9246 18.9865C26.0951 18.9865 27.6612 18.9941 27.6765 18.9941H27.6866C27.6866 18.9941 27.7044 18.9941 27.7297 18.9941C27.8363 18.9941 28.0962 19.0131 28.2027 19.1932C28.289 19.3657 28.3067 19.4062 28.1127 19.9566C27.9212 19.9579 27.5192 19.9591 26.913 19.9591C25.6791 19.9591 24.028 19.9553 23.9925 19.9553C23.9684 19.9553 23.4117 19.9794 23.2862 20.4639C23.1834 20.857 22.8436 22.1391 22.8385 22.1568C22.8322 22.1873 22.7789 22.4561 22.9324 22.6501H22.9349V22.6476Z" fill="url(#paint10_linear_2487_175)"/>
</g>
<defs>
<radialGradient id="paint0_radial_2487_175" cx="0" cy="0" r="1" gradientUnits="userSpaceOnUse" gradientTransform="translate(21.3787 17.6962) rotate(90.71) scale(12.0448 20.1149)">
<stop stop-color="#808080"/>
<stop offset="0.53" stop-color="#404040"/>
<stop offset="0.74" stop-color="#4C4C4C"/>
<stop offset="0.98" stop-color="#575757"/>
</radialGradient>
<linearGradient id="paint1_linear_2487_175" x1="21.5007" y1="27.6542" x2="21.5007" y2="16.1712" gradientUnits="userSpaceOnUse">
<stop/>
<stop offset="0.07" stop-color="#0C0C0C"/>
<stop offset="0.19" stop-color="#1A1A1A"/>
<stop offset="0.33" stop-color="#232323"/>
<stop offset="0.55" stop-color="#262626"/>
<stop offset="0.98" stop-color="#292929"/>
</linearGradient>
<radialGradient id="paint2_radial_2487_175" cx="0" cy="0" r="1" gradientUnits="userSpaceOnUse" gradientTransform="translate(21.5433 15.2891) rotate(89.84) scale(14.3034 19.0235)">
<stop offset="0.63" stop-color="#949494"/>
<stop offset="0.65" stop-color="#9F9F9F"/>
<stop offset="0.7" stop-color="#BEBEBE"/>
<stop offset="0.76" stop-color="#F0F0F0"/>
<stop offset="0.77" stop-color="white"/>
<stop offset="0.79" stop-color="#DADADA"/>
<stop offset="0.81" stop-color="#A7A7A7"/>
<stop offset="0.83" stop-color="#888888"/>
<stop offset="0.84" stop-color="#7D7D7D"/>
<stop offset="0.92" stop-color="#919191"/>
<stop offset="1" stop-color="white"/>
</radialGradient>
<linearGradient id="paint3_linear_2487_175" x1="21.5019" y1="27.3663" x2="21.5019" y2="16.5859" gradientUnits="userSpaceOnUse">
<stop offset="0.11" stop-color="#DBDBDB"/>
<stop offset="0.88" stop-color="#363636"/>
</linearGradient>
<linearGradient id="paint4_linear_2487_175" x1="21.4335" y1="28.5787" x2="21.5235" y2="15.9303" gradientUnits="userSpaceOnUse">
<stop offset="0.11"/>
<stop offset="0.41" stop-color="#3C3C3C"/>
<stop offset="0.68" stop-color="#6A6A6A"/>
<stop offset="0.88" stop-color="#868686"/>
<stop offset="1" stop-color="#919191"/>
</linearGradient>
<linearGradient id="paint5_linear_2487_175" x1="21.5018" y1="17.0488" x2="21.5018" y2="25.279" gradientUnits="userSpaceOnUse">
<stop offset="0.11" stop-color="#363636"/>
<stop offset="0.78"/>
</linearGradient>
<linearGradient id="paint6_linear_2487_175" x1="18.3201" y1="18.9966" x2="18.3201" y2="23.7471" gradientUnits="userSpaceOnUse">
<stop stop-color="white"/>
<stop offset="0.16" stop-color="#F3F3F3"/>
<stop offset="0.36" stop-color="#CECECE"/>
<stop offset="0.37" stop-color="#AEAEAE"/>
<stop offset="0.38" stop-color="#ABABAB"/>
<stop offset="0.48" stop-color="#979797"/>
<stop offset="0.58" stop-color="#8B8B8B"/>
<stop offset="0.68" stop-color="#878787"/>
<stop offset="1" stop-color="#303030"/>
</linearGradient>
<linearGradient id="paint7_linear_2487_175" x1="25.012" y1="18.9852" x2="25.012" y2="23.7458" gradientUnits="userSpaceOnUse">
<stop stop-color="white"/>
<stop offset="0.16" stop-color="#F3F3F3"/>
<stop offset="0.36" stop-color="#CECECE"/>
<stop offset="0.37" stop-color="#AEAEAE"/>
<stop offset="0.38" stop-color="#ABABAB"/>
<stop offset="0.48" stop-color="#979797"/>
<stop offset="0.58" stop-color="#8B8B8B"/>
<stop offset="0.68" stop-color="#878787"/>
<stop offset="1" stop-color="#303030"/>
</linearGradient>
<linearGradient id="paint8_linear_2487_175" x1="18.1338" y1="18.7341" x2="19.0354" y2="24.0451" gradientUnits="userSpaceOnUse">
<stop stop-color="#F9F9F9"/>
<stop offset="0.07" stop-color="#C9C9C9"/>
<stop offset="0.13" stop-color="#A0A0A0"/>
<stop offset="0.19" stop-color="#818181"/>
<stop offset="0.25" stop-color="#6B6B6B"/>
<stop offset="0.31" stop-color="#5D5D5D"/>
<stop offset="0.36" stop-color="#595959"/>
<stop offset="0.45" stop-color="#5A5A5A"/>
<stop offset="0.48" stop-color="#616161"/>
<stop offset="0.5" stop-color="#6D6D6D"/>
<stop offset="0.52" stop-color="#818181"/>
<stop offset="0.77" stop-color="#A8A8A8"/>
<stop offset="0.79" stop-color="#838383"/>
<stop offset="0.82" stop-color="#626262"/>
<stop offset="0.84" stop-color="#464646"/>
<stop offset="0.87" stop-color="#313131"/>
<stop offset="0.9" stop-color="#222222"/>
<stop offset="0.94" stop-color="#191919"/>
<stop offset="1" stop-color="#171717"/>
</linearGradient>
<radialGradient id="paint9_radial_2487_175" cx="0" cy="0" r="1" gradientUnits="userSpaceOnUse" gradientTransform="translate(18.6968 23.0237) rotate(-88.99) scale(1.64351 2.23517)">
<stop offset="0.44" stop-color="white"/>
<stop offset="1" stop-color="#4D4D4D"/>
</radialGradient>
<linearGradient id="paint10_linear_2487_175" x1="24.4452" y1="18.4627" x2="25.4357" y2="23.8701" gradientUnits="userSpaceOnUse">
<stop stop-color="#F9F9F9"/>
<stop offset="0.07" stop-color="#C9C9C9"/>
<stop offset="0.13" stop-color="#A0A0A0"/>
<stop offset="0.19" stop-color="#818181"/>
<stop offset="0.25" stop-color="#6B6B6B"/>
<stop offset="0.31" stop-color="#5D5D5D"/>
<stop offset="0.36" stop-color="#595959"/>
<stop offset="0.45" stop-color="#5A5A5A"/>
<stop offset="0.48" stop-color="#616161"/>
<stop offset="0.5" stop-color="#6D6D6D"/>
<stop offset="0.52" stop-color="#818181"/>
<stop offset="0.79" stop-color="#A8A8A8"/>
<stop offset="0.81" stop-color="#828282"/>
<stop offset="0.83" stop-color="#616161"/>
<stop offset="0.85" stop-color="#464646"/>
<stop offset="0.87" stop-color="#313131"/>
<stop offset="0.9" stop-color="#222222"/>
<stop offset="0.93" stop-color="#191919"/>
<stop offset="0.98" stop-color="#171717"/>
</linearGradient>
<clipPath id="clip0_2487_175">
<rect width="42.8" height="62" fill="white"/>
</clipPath>
</defs>
</svg>
